<svg xmlns="http://www.w3.org/2000/svg"><defs><clipPath id="clip0"><path fill="#fff" d="M0 0h44v45.222H0z"/></clipPath><clipPath id="clip0"><path fill="#fff" d="M0 0h44v45.222H0z"/></clipPath><clipPath id="clip0"><path fill="#fff" d="M0 0h44v45.222H0z"/></clipPath><clipPath id="clip0"><path fill="#fff" d="M0 0h44v45.222H0z"/></clipPath><clipPath id="clip0"><path fill="#fff" d="M0 0h44v45.222H0z"/></clipPath><clipPath id="clip0"><path fill="#fff" d="M0 0h44v45.222H0z"/></clipPath><clipPath id="clip0"><path fill="#fff" d="M0 0h44v45.222H0z"/></clipPath><clipPath id="clip0"><path fill="#fff" d="M0 0h44v45.222H0z"/></clipPath></defs><symbol id="arrow-down" viewBox="0 0 37 23"><path d="M18.5 22.046a2.584 2.584 0 01-1.832-.759L.76 5.377a2.591 2.591 0 113.664-3.664L18.5 15.791 32.577 1.714a2.591 2.591 0 013.664 3.664l-15.91 15.91a2.584 2.584 0 01-1.831.758z" fill="#fff"/></symbol><symbol id="button-burger" viewBox="0 0 30 22"><path stroke="#fff" stroke-width="2" d="M0 1h30M0 11h30M0 21h30"/></symbol><symbol id="chat-icon" viewBox="0 0 60 60"><path d="M35.625 11.25h-22.5a1.876 1.876 0 000 3.75h22.5a1.876 1.876 0 000-3.75zm-7.5 7.5h-15a1.876 1.876 0 000 3.75h15a1.876 1.876 0 000-3.75z" fill="#2352DE"/><path d="M41.25 0H7.5C3.364 0 0 3.364 0 7.5V45a1.873 1.873 0 003.075 1.44l10.729-8.94H41.25c4.136 0 7.5-3.364 7.5-7.5V7.5c0-4.136-3.364-7.5-7.5-7.5zM45 30c0 2.066-1.68 3.75-3.75 3.75H13.125c-.439 0-.863.154-1.2.435L3.75 40.999V7.5c0-2.066 1.68-3.75 3.75-3.75h33.75C43.32 3.75 45 5.434 45 7.5V30z" fill="#2352DE"/><path d="M52.5 15a1.876 1.876 0 000 3.75c2.07 0 3.75 1.684 3.75 3.75v31.721l-6.33-5.062a1.89 1.89 0 00-1.17-.409H22.5A3.754 3.754 0 0118.75 45v-1.875a1.876 1.876 0 00-3.75 0V45c0 4.136 3.364 7.5 7.5 7.5h25.59l8.861 7.091a1.893 1.893 0 001.988.225A1.88 1.88 0 0060 58.125V22.5c0-4.136-3.364-7.5-7.5-7.5z" fill="#2352DE"/></symbol><symbol id="code-icon" viewBox="0 0 60 60"><path d="M37.246.81L35.258.065c-.256-.116-.508-.08-.753.11-.246.19-.412.473-.498.852L22.05 57.442c-.086.379-.059.736.08 1.07.139.336.347.561.625.678l1.988.743c.256.117.508.08.753-.109.246-.19.412-.474.497-.852l11.96-56.414a1.737 1.737 0 00-.081-1.072c-.14-.335-.347-.56-.625-.677zM19 10.743c0-.39-.109-.737-.327-1.037L17.041 7.45c-.218-.3-.468-.451-.75-.451-.284 0-.534.15-.752.451L.327 28.463A1.72 1.72 0 000 29.5c0 .391.109.737.327 1.037L15.539 51.55c.218.301.468.451.751.451s.533-.15.75-.45l1.633-2.254c.218-.3.327-.646.327-1.038 0-.39-.11-.736-.327-1.036L5.843 29.5l12.83-17.72c.218-.3.327-.646.327-1.037zm40.674 17.72L44.46 7.45c-.218-.3-.468-.451-.75-.451-.284 0-.534.15-.752.451l-1.632 2.255c-.218.3-.326.646-.326 1.037 0 .391.108.736.326 1.037l12.83 17.72-12.83 17.722c-.218.3-.326.646-.326 1.036 0 .392.108.737.326 1.038l1.632 2.253c.218.301.468.451.751.451s.533-.15.75-.45l15.215-21.012c.217-.3.326-.647.326-1.038 0-.39-.109-.737-.326-1.037z" fill="#2352DE"/></symbol><symbol id="cross" viewBox="0 0 25 24"><path stroke="#fff" stroke-width="2" d="M2.1 1.686l21.214 21.213m-21.628 0L22.899 1.686"/></symbol><symbol id="dev-icon" viewBox="0 0 60 60"><path d="M31.883 60h-3.766a5.53 5.53 0 01-5.523-5.523v-1.274a24.225 24.225 0 01-3.762-1.562l-.902.903c-2.187 2.19-5.69 2.125-7.813 0l-2.661-2.662c-2.127-2.124-2.188-5.626 0-7.812l.903-.902a24.221 24.221 0 01-1.562-3.762H5.523A5.53 5.53 0 010 31.883v-3.766a5.53 5.53 0 015.524-5.523h1.273a24.224 24.224 0 011.562-3.762l-.903-.902c-2.188-2.185-2.127-5.687 0-7.813l2.662-2.661c2.128-2.131 5.63-2.184 7.812 0l.902.903a24.24 24.24 0 013.762-1.562V5.523A5.53 5.53 0 0128.117 0h3.766a5.53 5.53 0 015.523 5.523v1.274a24.22 24.22 0 013.762 1.562l.902-.903c2.187-2.19 5.69-2.125 7.813 0l2.661 2.662c2.127 2.124 2.188 5.626 0 7.812l-.903.902a24.224 24.224 0 011.562 3.762h1.273A5.53 5.53 0 0160 28.117v3.766a5.53 5.53 0 01-5.523 5.523h-1.274a24.228 24.228 0 01-1.562 3.762l.903.902c2.188 2.185 2.127 5.687 0 7.813l-2.662 2.661c-2.128 2.131-5.63 2.184-7.812 0l-.902-.902a24.242 24.242 0 01-3.762 1.56v1.275A5.53 5.53 0 0131.883 60zM19.42 47.95a20.718 20.718 0 005.37 2.23c.777.2 1.32.9 1.32 1.701v2.596c0 1.107.9 2.007 2.007 2.007h3.766a2.01 2.01 0 002.008-2.007V51.88c0-.801.542-1.502 1.318-1.702a20.72 20.72 0 005.371-2.23 1.758 1.758 0 012.138.27l1.838 1.84a2.007 2.007 0 002.84 0l2.663-2.663a2.008 2.008 0 000-2.839l-1.839-1.84a1.758 1.758 0 01-.27-2.137 20.711 20.711 0 002.23-5.37c.2-.777.9-1.32 1.701-1.32h2.596a2.01 2.01 0 002.008-2.007v-3.766a2.01 2.01 0 00-2.008-2.008H51.88a1.758 1.758 0 01-1.702-1.318 20.716 20.716 0 00-2.23-5.37 1.758 1.758 0 01.271-2.139l1.839-1.838a2.007 2.007 0 000-2.839l-2.663-2.663a2.007 2.007 0 00-2.839 0l-1.839 1.838a1.758 1.758 0 01-2.138.27 20.723 20.723 0 00-5.37-2.229c-.777-.2-1.32-.9-1.32-1.702V5.523a2.01 2.01 0 00-2.007-2.007h-3.766a2.01 2.01 0 00-2.008 2.007V8.12c0 .802-.542 1.502-1.318 1.702a20.72 20.72 0 00-5.37 2.23 1.758 1.758 0 01-2.139-.27l-1.838-1.84a2.007 2.007 0 00-2.839 0l-2.663 2.663a2.007 2.007 0 00-.001 2.839l1.84 1.84c.567.567.678 1.446.27 2.137a20.718 20.718 0 00-2.23 5.37c-.2.777-.9 1.32-1.702 1.32H5.524a2.01 2.01 0 00-2.008 2.007v3.766c0 1.107.9 2.008 2.008 2.008h2.595c.802 0 1.502.542 1.702 1.318a20.718 20.718 0 002.23 5.37 1.76 1.76 0 01-.27 2.139l-1.84 1.838a2.007 2.007 0 000 2.84l2.663 2.662a2.007 2.007 0 002.839 0l1.839-1.838c.418-.418 1.288-.773 2.138-.27z" fill="#2352DE"/><path d="M30 43.055c-7.198 0-13.055-5.857-13.055-13.055 0-7.198 5.857-13.055 13.055-13.055 7.199 0 13.055 5.857 13.055 13.055 0 7.198-5.856 13.055-13.055 13.055zm0-22.594c-5.26 0-9.539 4.28-9.539 9.539 0 5.26 4.28 9.54 9.539 9.54 5.26 0 9.54-4.28 9.54-9.54 0-5.26-4.28-9.54-9.54-9.54z" fill="#2352DE"/></symbol><symbol id="good-icon" viewBox="0 0 1171 1280" preserveAspectRatio="xMidYMid meet"><path d="M11555 12694c-1288-888-2591-2076-3945-3594-1475-1656-3026-3783-4315-5918-72-119-115-180-123-177s-716 474-1575 1048S29 5100 21 5105c-11 6-10 2 2-16C121 4949 3727 11 3732 10c3 0 34 66 68 148 1225 2918 2422 5234 3838 7427 1148 1777 2481 3497 3899 5028 91 97 163 177 161 177s-67-43-143-96z" transform="matrix(.1 0 0 -.1 0 1280)" fill="#2352DE"/></symbol><symbol id="images"><symbol id="arrow-down" viewBox="0 0 37 23"><path d="M18.5 22.046a2.584 2.584 0 01-1.832-.759L.76 5.377a2.591 2.591 0 113.664-3.664L18.5 15.791 32.577 1.714a2.591 2.591 0 013.664 3.664l-15.91 15.91a2.584 2.584 0 01-1.831.758z" fill="#fff"/></symbol><symbol id="button-burger" viewBox="0 0 30 22"><path stroke="#fff" stroke-width="2" d="M0 1h30M0 11h30M0 21h30"/></symbol><symbol id="chat-icon" viewBox="0 0 60 60"><path d="M35.625 11.25h-22.5a1.876 1.876 0 000 3.75h22.5a1.876 1.876 0 000-3.75zm-7.5 7.5h-15a1.876 1.876 0 000 3.75h15a1.876 1.876 0 000-3.75z" fill="#2352DE"/><path d="M41.25 0H7.5C3.364 0 0 3.364 0 7.5V45a1.873 1.873 0 003.075 1.44l10.729-8.94H41.25c4.136 0 7.5-3.364 7.5-7.5V7.5c0-4.136-3.364-7.5-7.5-7.5zM45 30c0 2.066-1.68 3.75-3.75 3.75H13.125c-.439 0-.863.154-1.2.435L3.75 40.999V7.5c0-2.066 1.68-3.75 3.75-3.75h33.75C43.32 3.75 45 5.434 45 7.5V30z" fill="#2352DE"/><path d="M52.5 15a1.876 1.876 0 000 3.75c2.07 0 3.75 1.684 3.75 3.75v31.721l-6.33-5.062a1.89 1.89 0 00-1.17-.409H22.5A3.754 3.754 0 0118.75 45v-1.875a1.876 1.876 0 00-3.75 0V45c0 4.136 3.364 7.5 7.5 7.5h25.59l8.861 7.091a1.893 1.893 0 001.988.225A1.88 1.88 0 0060 58.125V22.5c0-4.136-3.364-7.5-7.5-7.5z" fill="#2352DE"/></symbol><symbol id="code-icon" viewBox="0 0 60 60"><path d="M37.246.81L35.258.065c-.256-.116-.508-.08-.753.11-.246.19-.412.473-.498.852L22.05 57.442c-.086.379-.059.736.08 1.07.139.336.347.561.625.678l1.988.743c.256.117.508.08.753-.109.246-.19.412-.474.497-.852l11.96-56.414a1.737 1.737 0 00-.081-1.072c-.14-.335-.347-.56-.625-.677zM19 10.743c0-.39-.109-.737-.327-1.037L17.041 7.45c-.218-.3-.468-.451-.75-.451-.284 0-.534.15-.752.451L.327 28.463A1.72 1.72 0 000 29.5c0 .391.109.737.327 1.037L15.539 51.55c.218.301.468.451.751.451s.533-.15.75-.45l1.633-2.254c.218-.3.327-.646.327-1.038 0-.39-.11-.736-.327-1.036L5.843 29.5l12.83-17.72c.218-.3.327-.646.327-1.037zm40.674 17.72L44.46 7.45c-.218-.3-.468-.451-.75-.451-.284 0-.534.15-.752.451l-1.632 2.255c-.218.3-.326.646-.326 1.037 0 .391.108.736.326 1.037l12.83 17.72-12.83 17.722c-.218.3-.326.646-.326 1.036 0 .392.108.737.326 1.038l1.632 2.253c.218.301.468.451.751.451s.533-.15.75-.45l15.215-21.012c.217-.3.326-.647.326-1.038 0-.39-.109-.737-.326-1.037z" fill="#2352DE"/></symbol><symbol id="cross" viewBox="0 0 25 24"><path stroke="#fff" stroke-width="2" d="M2.1 1.686l21.214 21.213m-21.628 0L22.899 1.686"/></symbol><symbol id="dev-icon" viewBox="0 0 60 60"><path d="M31.883 60h-3.766a5.53 5.53 0 01-5.523-5.523v-1.274a24.225 24.225 0 01-3.762-1.562l-.902.903c-2.187 2.19-5.69 2.125-7.813 0l-2.661-2.662c-2.127-2.124-2.188-5.626 0-7.812l.903-.902a24.221 24.221 0 01-1.562-3.762H5.523A5.53 5.53 0 010 31.883v-3.766a5.53 5.53 0 015.524-5.523h1.273a24.224 24.224 0 011.562-3.762l-.903-.902c-2.188-2.185-2.127-5.687 0-7.813l2.662-2.661c2.128-2.131 5.63-2.184 7.812 0l.902.903a24.24 24.24 0 013.762-1.562V5.523A5.53 5.53 0 0128.117 0h3.766a5.53 5.53 0 015.523 5.523v1.274a24.22 24.22 0 013.762 1.562l.902-.903c2.187-2.19 5.69-2.125 7.813 0l2.661 2.662c2.127 2.124 2.188 5.626 0 7.812l-.903.902a24.224 24.224 0 011.562 3.762h1.273A5.53 5.53 0 0160 28.117v3.766a5.53 5.53 0 01-5.523 5.523h-1.274a24.228 24.228 0 01-1.562 3.762l.903.902c2.188 2.185 2.127 5.687 0 7.813l-2.662 2.661c-2.128 2.131-5.63 2.184-7.812 0l-.902-.902a24.242 24.242 0 01-3.762 1.56v1.275A5.53 5.53 0 0131.883 60zM19.42 47.95a20.718 20.718 0 005.37 2.23c.777.2 1.32.9 1.32 1.701v2.596c0 1.107.9 2.007 2.007 2.007h3.766a2.01 2.01 0 002.008-2.007V51.88c0-.801.542-1.502 1.318-1.702a20.72 20.72 0 005.371-2.23 1.758 1.758 0 012.138.27l1.838 1.84a2.007 2.007 0 002.84 0l2.663-2.663a2.008 2.008 0 000-2.839l-1.839-1.84a1.758 1.758 0 01-.27-2.137 20.711 20.711 0 002.23-5.37c.2-.777.9-1.32 1.701-1.32h2.596a2.01 2.01 0 002.008-2.007v-3.766a2.01 2.01 0 00-2.008-2.008H51.88a1.758 1.758 0 01-1.702-1.318 20.716 20.716 0 00-2.23-5.37 1.758 1.758 0 01.271-2.139l1.839-1.838a2.007 2.007 0 000-2.839l-2.663-2.663a2.007 2.007 0 00-2.839 0l-1.839 1.838a1.758 1.758 0 01-2.138.27 20.723 20.723 0 00-5.37-2.229c-.777-.2-1.32-.9-1.32-1.702V5.523a2.01 2.01 0 00-2.007-2.007h-3.766a2.01 2.01 0 00-2.008 2.007V8.12c0 .802-.542 1.502-1.318 1.702a20.72 20.72 0 00-5.37 2.23 1.758 1.758 0 01-2.139-.27l-1.838-1.84a2.007 2.007 0 00-2.839 0l-2.663 2.663a2.007 2.007 0 00-.001 2.839l1.84 1.84c.567.567.678 1.446.27 2.137a20.718 20.718 0 00-2.23 5.37c-.2.777-.9 1.32-1.702 1.32H5.524a2.01 2.01 0 00-2.008 2.007v3.766c0 1.107.9 2.008 2.008 2.008h2.595c.802 0 1.502.542 1.702 1.318a20.718 20.718 0 002.23 5.37 1.76 1.76 0 01-.27 2.139l-1.84 1.838a2.007 2.007 0 000 2.84l2.663 2.662a2.007 2.007 0 002.839 0l1.839-1.838c.418-.418 1.288-.773 2.138-.27z" fill="#2352DE"/><path d="M30 43.055c-7.198 0-13.055-5.857-13.055-13.055 0-7.198 5.857-13.055 13.055-13.055 7.199 0 13.055 5.857 13.055 13.055 0 7.198-5.856 13.055-13.055 13.055zm0-22.594c-5.26 0-9.539 4.28-9.539 9.539 0 5.26 4.28 9.54 9.539 9.54 5.26 0 9.54-4.28 9.54-9.54 0-5.26-4.28-9.54-9.54-9.54z" fill="#2352DE"/></symbol><symbol id="good-icon" viewBox="0 0 1171 1280" preserveAspectRatio="xMidYMid meet"><path d="M11555 12694c-1288-888-2591-2076-3945-3594-1475-1656-3026-3783-4315-5918-72-119-115-180-123-177s-716 474-1575 1048S29 5100 21 5105c-11 6-10 2 2-16C121 4949 3727 11 3732 10c3 0 34 66 68 148 1225 2918 2422 5234 3838 7427 1148 1777 2481 3497 3899 5028 91 97 163 177 161 177s-67-43-143-96z" transform="matrix(.1 0 0 -.1 0 1280)" fill="#2352DE"/></symbol><symbol id="images"><symbol id="arrow-down" viewBox="0 0 37 23"><path d="M18.5 22.046a2.584 2.584 0 01-1.832-.759L.76 5.377a2.591 2.591 0 113.664-3.664L18.5 15.791 32.577 1.714a2.591 2.591 0 013.664 3.664l-15.91 15.91a2.584 2.584 0 01-1.831.758z" fill="#fff"/></symbol><symbol id="button-burger" viewBox="0 0 30 22"><path stroke="#fff" stroke-width="2" d="M0 1h30M0 11h30M0 21h30"/></symbol><symbol id="chat-icon" viewBox="0 0 60 60"><path d="M35.625 11.25h-22.5a1.876 1.876 0 000 3.75h22.5a1.876 1.876 0 000-3.75zm-7.5 7.5h-15a1.876 1.876 0 000 3.75h15a1.876 1.876 0 000-3.75z" fill="#2352DE"/><path d="M41.25 0H7.5C3.364 0 0 3.364 0 7.5V45a1.873 1.873 0 003.075 1.44l10.729-8.94H41.25c4.136 0 7.5-3.364 7.5-7.5V7.5c0-4.136-3.364-7.5-7.5-7.5zM45 30c0 2.066-1.68 3.75-3.75 3.75H13.125c-.439 0-.863.154-1.2.435L3.75 40.999V7.5c0-2.066 1.68-3.75 3.75-3.75h33.75C43.32 3.75 45 5.434 45 7.5V30z" fill="#2352DE"/><path d="M52.5 15a1.876 1.876 0 000 3.75c2.07 0 3.75 1.684 3.75 3.75v31.721l-6.33-5.062a1.89 1.89 0 00-1.17-.409H22.5A3.754 3.754 0 0118.75 45v-1.875a1.876 1.876 0 00-3.75 0V45c0 4.136 3.364 7.5 7.5 7.5h25.59l8.861 7.091a1.893 1.893 0 001.988.225A1.88 1.88 0 0060 58.125V22.5c0-4.136-3.364-7.5-7.5-7.5z" fill="#2352DE"/></symbol><symbol id="code-icon" viewBox="0 0 60 60"><path d="M37.246.81L35.258.065c-.256-.116-.508-.08-.753.11-.246.19-.412.473-.498.852L22.05 57.442c-.086.379-.059.736.08 1.07.139.336.347.561.625.678l1.988.743c.256.117.508.08.753-.109.246-.19.412-.474.497-.852l11.96-56.414a1.737 1.737 0 00-.081-1.072c-.14-.335-.347-.56-.625-.677zM19 10.743c0-.39-.109-.737-.327-1.037L17.041 7.45c-.218-.3-.468-.451-.75-.451-.284 0-.534.15-.752.451L.327 28.463A1.72 1.72 0 000 29.5c0 .391.109.737.327 1.037L15.539 51.55c.218.301.468.451.751.451s.533-.15.75-.45l1.633-2.254c.218-.3.327-.646.327-1.038 0-.39-.11-.736-.327-1.036L5.843 29.5l12.83-17.72c.218-.3.327-.646.327-1.037zm40.674 17.72L44.46 7.45c-.218-.3-.468-.451-.75-.451-.284 0-.534.15-.752.451l-1.632 2.255c-.218.3-.326.646-.326 1.037 0 .391.108.736.326 1.037l12.83 17.72-12.83 17.722c-.218.3-.326.646-.326 1.036 0 .392.108.737.326 1.038l1.632 2.253c.218.301.468.451.751.451s.533-.15.75-.45l15.215-21.012c.217-.3.326-.647.326-1.038 0-.39-.109-.737-.326-1.037z" fill="#2352DE"/></symbol><symbol id="cross" viewBox="0 0 25 24"><path stroke="#fff" stroke-width="2" d="M2.1 1.686l21.214 21.213m-21.628 0L22.899 1.686"/></symbol><symbol id="dev-icon" viewBox="0 0 60 60"><path d="M31.883 60h-3.766a5.53 5.53 0 01-5.523-5.523v-1.274a24.225 24.225 0 01-3.762-1.562l-.902.903c-2.187 2.19-5.69 2.125-7.813 0l-2.661-2.662c-2.127-2.124-2.188-5.626 0-7.812l.903-.902a24.221 24.221 0 01-1.562-3.762H5.523A5.53 5.53 0 010 31.883v-3.766a5.53 5.53 0 015.524-5.523h1.273a24.224 24.224 0 011.562-3.762l-.903-.902c-2.188-2.185-2.127-5.687 0-7.813l2.662-2.661c2.128-2.131 5.63-2.184 7.812 0l.902.903a24.24 24.24 0 013.762-1.562V5.523A5.53 5.53 0 0128.117 0h3.766a5.53 5.53 0 015.523 5.523v1.274a24.22 24.22 0 013.762 1.562l.902-.903c2.187-2.19 5.69-2.125 7.813 0l2.661 2.662c2.127 2.124 2.188 5.626 0 7.812l-.903.902a24.224 24.224 0 011.562 3.762h1.273A5.53 5.53 0 0160 28.117v3.766a5.53 5.53 0 01-5.523 5.523h-1.274a24.228 24.228 0 01-1.562 3.762l.903.902c2.188 2.185 2.127 5.687 0 7.813l-2.662 2.661c-2.128 2.131-5.63 2.184-7.812 0l-.902-.902a24.242 24.242 0 01-3.762 1.56v1.275A5.53 5.53 0 0131.883 60zM19.42 47.95a20.718 20.718 0 005.37 2.23c.777.2 1.32.9 1.32 1.701v2.596c0 1.107.9 2.007 2.007 2.007h3.766a2.01 2.01 0 002.008-2.007V51.88c0-.801.542-1.502 1.318-1.702a20.72 20.72 0 005.371-2.23 1.758 1.758 0 012.138.27l1.838 1.84a2.007 2.007 0 002.84 0l2.663-2.663a2.008 2.008 0 000-2.839l-1.839-1.84a1.758 1.758 0 01-.27-2.137 20.711 20.711 0 002.23-5.37c.2-.777.9-1.32 1.701-1.32h2.596a2.01 2.01 0 002.008-2.007v-3.766a2.01 2.01 0 00-2.008-2.008H51.88a1.758 1.758 0 01-1.702-1.318 20.716 20.716 0 00-2.23-5.37 1.758 1.758 0 01.271-2.139l1.839-1.838a2.007 2.007 0 000-2.839l-2.663-2.663a2.007 2.007 0 00-2.839 0l-1.839 1.838a1.758 1.758 0 01-2.138.27 20.723 20.723 0 00-5.37-2.229c-.777-.2-1.32-.9-1.32-1.702V5.523a2.01 2.01 0 00-2.007-2.007h-3.766a2.01 2.01 0 00-2.008 2.007V8.12c0 .802-.542 1.502-1.318 1.702a20.72 20.72 0 00-5.37 2.23 1.758 1.758 0 01-2.139-.27l-1.838-1.84a2.007 2.007 0 00-2.839 0l-2.663 2.663a2.007 2.007 0 00-.001 2.839l1.84 1.84c.567.567.678 1.446.27 2.137a20.718 20.718 0 00-2.23 5.37c-.2.777-.9 1.32-1.702 1.32H5.524a2.01 2.01 0 00-2.008 2.007v3.766c0 1.107.9 2.008 2.008 2.008h2.595c.802 0 1.502.542 1.702 1.318a20.718 20.718 0 002.23 5.37 1.76 1.76 0 01-.27 2.139l-1.84 1.838a2.007 2.007 0 000 2.84l2.663 2.662a2.007 2.007 0 002.839 0l1.839-1.838c.418-.418 1.288-.773 2.138-.27z" fill="#2352DE"/><path d="M30 43.055c-7.198 0-13.055-5.857-13.055-13.055 0-7.198 5.857-13.055 13.055-13.055 7.199 0 13.055 5.857 13.055 13.055 0 7.198-5.856 13.055-13.055 13.055zm0-22.594c-5.26 0-9.539 4.28-9.539 9.539 0 5.26 4.28 9.54 9.539 9.54 5.26 0 9.54-4.28 9.54-9.54 0-5.26-4.28-9.54-9.54-9.54z" fill="#2352DE"/></symbol><symbol id="good-icon" viewBox="0 0 1171 1280" preserveAspectRatio="xMidYMid meet"><path d="M11555 12694c-1288-888-2591-2076-3945-3594-1475-1656-3026-3783-4315-5918-72-119-115-180-123-177s-716 474-1575 1048S29 5100 21 5105c-11 6-10 2 2-16C121 4949 3727 11 3732 10c3 0 34 66 68 148 1225 2918 2422 5234 3838 7427 1148 1777 2481 3497 3899 5028 91 97 163 177 161 177s-67-43-143-96z" transform="matrix(.1 0 0 -.1 0 1280)" fill="#2352DE"/></symbol><symbol id="images"><symbol id="arrow-down" viewBox="0 0 37 23"><path d="M18.5 22.046a2.584 2.584 0 01-1.832-.759L.76 5.377a2.591 2.591 0 113.664-3.664L18.5 15.791 32.577 1.714a2.591 2.591 0 013.664 3.664l-15.91 15.91a2.584 2.584 0 01-1.831.758z" fill="#fff"/></symbol><symbol id="button-burger" viewBox="0 0 30 22"><path stroke="#fff" stroke-width="2" d="M0 1h30M0 11h30M0 21h30"/></symbol><symbol id="chat-icon" viewBox="0 0 60 60"><path d="M35.625 11.25h-22.5a1.876 1.876 0 000 3.75h22.5a1.876 1.876 0 000-3.75zm-7.5 7.5h-15a1.876 1.876 0 000 3.75h15a1.876 1.876 0 000-3.75z" fill="#2352DE"/><path d="M41.25 0H7.5C3.364 0 0 3.364 0 7.5V45a1.873 1.873 0 003.075 1.44l10.729-8.94H41.25c4.136 0 7.5-3.364 7.5-7.5V7.5c0-4.136-3.364-7.5-7.5-7.5zM45 30c0 2.066-1.68 3.75-3.75 3.75H13.125c-.439 0-.863.154-1.2.435L3.75 40.999V7.5c0-2.066 1.68-3.75 3.75-3.75h33.75C43.32 3.75 45 5.434 45 7.5V30z" fill="#2352DE"/><path d="M52.5 15a1.876 1.876 0 000 3.75c2.07 0 3.75 1.684 3.75 3.75v31.721l-6.33-5.062a1.89 1.89 0 00-1.17-.409H22.5A3.754 3.754 0 0118.75 45v-1.875a1.876 1.876 0 00-3.75 0V45c0 4.136 3.364 7.5 7.5 7.5h25.59l8.861 7.091a1.893 1.893 0 001.988.225A1.88 1.88 0 0060 58.125V22.5c0-4.136-3.364-7.5-7.5-7.5z" fill="#2352DE"/></symbol><symbol id="code-icon" viewBox="0 0 60 60"><path d="M37.246.81L35.258.065c-.256-.116-.508-.08-.753.11-.246.19-.412.473-.498.852L22.05 57.442c-.086.379-.059.736.08 1.07.139.336.347.561.625.678l1.988.743c.256.117.508.08.753-.109.246-.19.412-.474.497-.852l11.96-56.414a1.737 1.737 0 00-.081-1.072c-.14-.335-.347-.56-.625-.677zM19 10.743c0-.39-.109-.737-.327-1.037L17.041 7.45c-.218-.3-.468-.451-.75-.451-.284 0-.534.15-.752.451L.327 28.463A1.72 1.72 0 000 29.5c0 .391.109.737.327 1.037L15.539 51.55c.218.301.468.451.751.451s.533-.15.75-.45l1.633-2.254c.218-.3.327-.646.327-1.038 0-.39-.11-.736-.327-1.036L5.843 29.5l12.83-17.72c.218-.3.327-.646.327-1.037zm40.674 17.72L44.46 7.45c-.218-.3-.468-.451-.75-.451-.284 0-.534.15-.752.451l-1.632 2.255c-.218.3-.326.646-.326 1.037 0 .391.108.736.326 1.037l12.83 17.72-12.83 17.722c-.218.3-.326.646-.326 1.036 0 .392.108.737.326 1.038l1.632 2.253c.218.301.468.451.751.451s.533-.15.75-.45l15.215-21.012c.217-.3.326-.647.326-1.038 0-.39-.109-.737-.326-1.037z" fill="#2352DE"/></symbol><symbol id="cross" viewBox="0 0 25 24"><path stroke="#fff" stroke-width="2" d="M2.1 1.686l21.214 21.213m-21.628 0L22.899 1.686"/></symbol><symbol id="dev-icon" viewBox="0 0 60 60"><path d="M31.883 60h-3.766a5.53 5.53 0 01-5.523-5.523v-1.274a24.225 24.225 0 01-3.762-1.562l-.902.903c-2.187 2.19-5.69 2.125-7.813 0l-2.661-2.662c-2.127-2.124-2.188-5.626 0-7.812l.903-.902a24.221 24.221 0 01-1.562-3.762H5.523A5.53 5.53 0 010 31.883v-3.766a5.53 5.53 0 015.524-5.523h1.273a24.224 24.224 0 011.562-3.762l-.903-.902c-2.188-2.185-2.127-5.687 0-7.813l2.662-2.661c2.128-2.131 5.63-2.184 7.812 0l.902.903a24.24 24.24 0 013.762-1.562V5.523A5.53 5.53 0 0128.117 0h3.766a5.53 5.53 0 015.523 5.523v1.274a24.22 24.22 0 013.762 1.562l.902-.903c2.187-2.19 5.69-2.125 7.813 0l2.661 2.662c2.127 2.124 2.188 5.626 0 7.812l-.903.902a24.224 24.224 0 011.562 3.762h1.273A5.53 5.53 0 0160 28.117v3.766a5.53 5.53 0 01-5.523 5.523h-1.274a24.228 24.228 0 01-1.562 3.762l.903.902c2.188 2.185 2.127 5.687 0 7.813l-2.662 2.661c-2.128 2.131-5.63 2.184-7.812 0l-.902-.902a24.242 24.242 0 01-3.762 1.56v1.275A5.53 5.53 0 0131.883 60zM19.42 47.95a20.718 20.718 0 005.37 2.23c.777.2 1.32.9 1.32 1.701v2.596c0 1.107.9 2.007 2.007 2.007h3.766a2.01 2.01 0 002.008-2.007V51.88c0-.801.542-1.502 1.318-1.702a20.72 20.72 0 005.371-2.23 1.758 1.758 0 012.138.27l1.838 1.84a2.007 2.007 0 002.84 0l2.663-2.663a2.008 2.008 0 000-2.839l-1.839-1.84a1.758 1.758 0 01-.27-2.137 20.711 20.711 0 002.23-5.37c.2-.777.9-1.32 1.701-1.32h2.596a2.01 2.01 0 002.008-2.007v-3.766a2.01 2.01 0 00-2.008-2.008H51.88a1.758 1.758 0 01-1.702-1.318 20.716 20.716 0 00-2.23-5.37 1.758 1.758 0 01.271-2.139l1.839-1.838a2.007 2.007 0 000-2.839l-2.663-2.663a2.007 2.007 0 00-2.839 0l-1.839 1.838a1.758 1.758 0 01-2.138.27 20.723 20.723 0 00-5.37-2.229c-.777-.2-1.32-.9-1.32-1.702V5.523a2.01 2.01 0 00-2.007-2.007h-3.766a2.01 2.01 0 00-2.008 2.007V8.12c0 .802-.542 1.502-1.318 1.702a20.72 20.72 0 00-5.37 2.23 1.758 1.758 0 01-2.139-.27l-1.838-1.84a2.007 2.007 0 00-2.839 0l-2.663 2.663a2.007 2.007 0 00-.001 2.839l1.84 1.84c.567.567.678 1.446.27 2.137a20.718 20.718 0 00-2.23 5.37c-.2.777-.9 1.32-1.702 1.32H5.524a2.01 2.01 0 00-2.008 2.007v3.766c0 1.107.9 2.008 2.008 2.008h2.595c.802 0 1.502.542 1.702 1.318a20.718 20.718 0 002.23 5.37 1.76 1.76 0 01-.27 2.139l-1.84 1.838a2.007 2.007 0 000 2.84l2.663 2.662a2.007 2.007 0 002.839 0l1.839-1.838c.418-.418 1.288-.773 2.138-.27z" fill="#2352DE"/><path d="M30 43.055c-7.198 0-13.055-5.857-13.055-13.055 0-7.198 5.857-13.055 13.055-13.055 7.199 0 13.055 5.857 13.055 13.055 0 7.198-5.856 13.055-13.055 13.055zm0-22.594c-5.26 0-9.539 4.28-9.539 9.539 0 5.26 4.28 9.54 9.539 9.54 5.26 0 9.54-4.28 9.54-9.54 0-5.26-4.28-9.54-9.54-9.54z" fill="#2352DE"/></symbol><symbol id="good-icon" viewBox="0 0 1171 1280" preserveAspectRatio="xMidYMid meet"><path d="M11555 12694c-1288-888-2591-2076-3945-3594-1475-1656-3026-3783-4315-5918-72-119-115-180-123-177s-716 474-1575 1048S29 5100 21 5105c-11 6-10 2 2-16C121 4949 3727 11 3732 10c3 0 34 66 68 148 1225 2918 2422 5234 3838 7427 1148 1777 2481 3497 3899 5028 91 97 163 177 161 177s-67-43-143-96z" transform="matrix(.1 0 0 -.1 0 1280)" fill="#2352DE"/></symbol><symbol id="images"><symbol id="arrow-down" viewBox="0 0 37 23"><path d="M18.5 22.046a2.584 2.584 0 01-1.832-.759L.76 5.377a2.591 2.591 0 113.664-3.664L18.5 15.791 32.577 1.714a2.591 2.591 0 013.664 3.664l-15.91 15.91a2.584 2.584 0 01-1.831.758z" fill="#fff"/></symbol><symbol id="button-burger" viewBox="0 0 30 22"><path stroke="#fff" stroke-width="2" d="M0 1h30M0 11h30M0 21h30"/></symbol><symbol id="chat-icon" viewBox="0 0 60 60"><path d="M35.625 11.25h-22.5a1.876 1.876 0 000 3.75h22.5a1.876 1.876 0 000-3.75zm-7.5 7.5h-15a1.876 1.876 0 000 3.75h15a1.876 1.876 0 000-3.75z" fill="#2352DE"/><path d="M41.25 0H7.5C3.364 0 0 3.364 0 7.5V45a1.873 1.873 0 003.075 1.44l10.729-8.94H41.25c4.136 0 7.5-3.364 7.5-7.5V7.5c0-4.136-3.364-7.5-7.5-7.5zM45 30c0 2.066-1.68 3.75-3.75 3.75H13.125c-.439 0-.863.154-1.2.435L3.75 40.999V7.5c0-2.066 1.68-3.75 3.75-3.75h33.75C43.32 3.75 45 5.434 45 7.5V30z" fill="#2352DE"/><path d="M52.5 15a1.876 1.876 0 000 3.75c2.07 0 3.75 1.684 3.75 3.75v31.721l-6.33-5.062a1.89 1.89 0 00-1.17-.409H22.5A3.754 3.754 0 0118.75 45v-1.875a1.876 1.876 0 00-3.75 0V45c0 4.136 3.364 7.5 7.5 7.5h25.59l8.861 7.091a1.893 1.893 0 001.988.225A1.88 1.88 0 0060 58.125V22.5c0-4.136-3.364-7.5-7.5-7.5z" fill="#2352DE"/></symbol><symbol id="code-icon" viewBox="0 0 60 60"><path d="M37.246.81L35.258.065c-.256-.116-.508-.08-.753.11-.246.19-.412.473-.498.852L22.05 57.442c-.086.379-.059.736.08 1.07.139.336.347.561.625.678l1.988.743c.256.117.508.08.753-.109.246-.19.412-.474.497-.852l11.96-56.414a1.737 1.737 0 00-.081-1.072c-.14-.335-.347-.56-.625-.677zM19 10.743c0-.39-.109-.737-.327-1.037L17.041 7.45c-.218-.3-.468-.451-.75-.451-.284 0-.534.15-.752.451L.327 28.463A1.72 1.72 0 000 29.5c0 .391.109.737.327 1.037L15.539 51.55c.218.301.468.451.751.451s.533-.15.75-.45l1.633-2.254c.218-.3.327-.646.327-1.038 0-.39-.11-.736-.327-1.036L5.843 29.5l12.83-17.72c.218-.3.327-.646.327-1.037zm40.674 17.72L44.46 7.45c-.218-.3-.468-.451-.75-.451-.284 0-.534.15-.752.451l-1.632 2.255c-.218.3-.326.646-.326 1.037 0 .391.108.736.326 1.037l12.83 17.72-12.83 17.722c-.218.3-.326.646-.326 1.036 0 .392.108.737.326 1.038l1.632 2.253c.218.301.468.451.751.451s.533-.15.75-.45l15.215-21.012c.217-.3.326-.647.326-1.038 0-.39-.109-.737-.326-1.037z" fill="#2352DE"/></symbol><symbol id="cross" viewBox="0 0 25 24"><path stroke="#fff" stroke-width="2" d="M2.1 1.686l21.214 21.213m-21.628 0L22.899 1.686"/></symbol><symbol id="dev-icon" viewBox="0 0 60 60"><path d="M31.883 60h-3.766a5.53 5.53 0 01-5.523-5.523v-1.274a24.225 24.225 0 01-3.762-1.562l-.902.903c-2.187 2.19-5.69 2.125-7.813 0l-2.661-2.662c-2.127-2.124-2.188-5.626 0-7.812l.903-.902a24.221 24.221 0 01-1.562-3.762H5.523A5.53 5.53 0 010 31.883v-3.766a5.53 5.53 0 015.524-5.523h1.273a24.224 24.224 0 011.562-3.762l-.903-.902c-2.188-2.185-2.127-5.687 0-7.813l2.662-2.661c2.128-2.131 5.63-2.184 7.812 0l.902.903a24.24 24.24 0 013.762-1.562V5.523A5.53 5.53 0 0128.117 0h3.766a5.53 5.53 0 015.523 5.523v1.274a24.22 24.22 0 013.762 1.562l.902-.903c2.187-2.19 5.69-2.125 7.813 0l2.661 2.662c2.127 2.124 2.188 5.626 0 7.812l-.903.902a24.224 24.224 0 011.562 3.762h1.273A5.53 5.53 0 0160 28.117v3.766a5.53 5.53 0 01-5.523 5.523h-1.274a24.228 24.228 0 01-1.562 3.762l.903.902c2.188 2.185 2.127 5.687 0 7.813l-2.662 2.661c-2.128 2.131-5.63 2.184-7.812 0l-.902-.902a24.242 24.242 0 01-3.762 1.56v1.275A5.53 5.53 0 0131.883 60zM19.42 47.95a20.718 20.718 0 005.37 2.23c.777.2 1.32.9 1.32 1.701v2.596c0 1.107.9 2.007 2.007 2.007h3.766a2.01 2.01 0 002.008-2.007V51.88c0-.801.542-1.502 1.318-1.702a20.72 20.72 0 005.371-2.23 1.758 1.758 0 012.138.27l1.838 1.84a2.007 2.007 0 002.84 0l2.663-2.663a2.008 2.008 0 000-2.839l-1.839-1.84a1.758 1.758 0 01-.27-2.137 20.711 20.711 0 002.23-5.37c.2-.777.9-1.32 1.701-1.32h2.596a2.01 2.01 0 002.008-2.007v-3.766a2.01 2.01 0 00-2.008-2.008H51.88a1.758 1.758 0 01-1.702-1.318 20.716 20.716 0 00-2.23-5.37 1.758 1.758 0 01.271-2.139l1.839-1.838a2.007 2.007 0 000-2.839l-2.663-2.663a2.007 2.007 0 00-2.839 0l-1.839 1.838a1.758 1.758 0 01-2.138.27 20.723 20.723 0 00-5.37-2.229c-.777-.2-1.32-.9-1.32-1.702V5.523a2.01 2.01 0 00-2.007-2.007h-3.766a2.01 2.01 0 00-2.008 2.007V8.12c0 .802-.542 1.502-1.318 1.702a20.72 20.72 0 00-5.37 2.23 1.758 1.758 0 01-2.139-.27l-1.838-1.84a2.007 2.007 0 00-2.839 0l-2.663 2.663a2.007 2.007 0 00-.001 2.839l1.84 1.84c.567.567.678 1.446.27 2.137a20.718 20.718 0 00-2.23 5.37c-.2.777-.9 1.32-1.702 1.32H5.524a2.01 2.01 0 00-2.008 2.007v3.766c0 1.107.9 2.008 2.008 2.008h2.595c.802 0 1.502.542 1.702 1.318a20.718 20.718 0 002.23 5.37 1.76 1.76 0 01-.27 2.139l-1.84 1.838a2.007 2.007 0 000 2.84l2.663 2.662a2.007 2.007 0 002.839 0l1.839-1.838c.418-.418 1.288-.773 2.138-.27z" fill="#2352DE"/><path d="M30 43.055c-7.198 0-13.055-5.857-13.055-13.055 0-7.198 5.857-13.055 13.055-13.055 7.199 0 13.055 5.857 13.055 13.055 0 7.198-5.856 13.055-13.055 13.055zm0-22.594c-5.26 0-9.539 4.28-9.539 9.539 0 5.26 4.28 9.54 9.539 9.54 5.26 0 9.54-4.28 9.54-9.54 0-5.26-4.28-9.54-9.54-9.54z" fill="#2352DE"/></symbol><symbol id="good-icon" viewBox="0 0 1171 1280" preserveAspectRatio="xMidYMid meet"><path d="M11555 12694c-1288-888-2591-2076-3945-3594-1475-1656-3026-3783-4315-5918-72-119-115-180-123-177s-716 474-1575 1048S29 5100 21 5105c-11 6-10 2 2-16C121 4949 3727 11 3732 10c3 0 34 66 68 148 1225 2918 2422 5234 3838 7427 1148 1777 2481 3497 3899 5028 91 97 163 177 161 177s-67-43-143-96z" transform="matrix(.1 0 0 -.1 0 1280)" fill="#2352DE"/></symbol><symbol id="images"><symbol id="arrow-down" viewBox="0 0 37 23"><path d="M18.5 22.046a2.584 2.584 0 01-1.832-.759L.76 5.377a2.591 2.591 0 113.664-3.664L18.5 15.791 32.577 1.714a2.591 2.591 0 013.664 3.664l-15.91 15.91a2.584 2.584 0 01-1.831.758z" fill="#fff"/></symbol><symbol id="button-burger" viewBox="0 0 30 22"><path stroke="#fff" stroke-width="2" d="M0 1h30M0 11h30M0 21h30"/></symbol><symbol id="chat-icon" viewBox="0 0 60 60"><path d="M35.625 11.25h-22.5a1.876 1.876 0 000 3.75h22.5a1.876 1.876 0 000-3.75zm-7.5 7.5h-15a1.876 1.876 0 000 3.75h15a1.876 1.876 0 000-3.75z" fill="#2352DE"/><path d="M41.25 0H7.5C3.364 0 0 3.364 0 7.5V45a1.873 1.873 0 003.075 1.44l10.729-8.94H41.25c4.136 0 7.5-3.364 7.5-7.5V7.5c0-4.136-3.364-7.5-7.5-7.5zM45 30c0 2.066-1.68 3.75-3.75 3.75H13.125c-.439 0-.863.154-1.2.435L3.75 40.999V7.5c0-2.066 1.68-3.75 3.75-3.75h33.75C43.32 3.75 45 5.434 45 7.5V30z" fill="#2352DE"/><path d="M52.5 15a1.876 1.876 0 000 3.75c2.07 0 3.75 1.684 3.75 3.75v31.721l-6.33-5.062a1.89 1.89 0 00-1.17-.409H22.5A3.754 3.754 0 0118.75 45v-1.875a1.876 1.876 0 00-3.75 0V45c0 4.136 3.364 7.5 7.5 7.5h25.59l8.861 7.091a1.893 1.893 0 001.988.225A1.88 1.88 0 0060 58.125V22.5c0-4.136-3.364-7.5-7.5-7.5z" fill="#2352DE"/></symbol><symbol id="code-icon" viewBox="0 0 60 60"><path d="M37.246.81L35.258.065c-.256-.116-.508-.08-.753.11-.246.19-.412.473-.498.852L22.05 57.442c-.086.379-.059.736.08 1.07.139.336.347.561.625.678l1.988.743c.256.117.508.08.753-.109.246-.19.412-.474.497-.852l11.96-56.414a1.737 1.737 0 00-.081-1.072c-.14-.335-.347-.56-.625-.677zM19 10.743c0-.39-.109-.737-.327-1.037L17.041 7.45c-.218-.3-.468-.451-.75-.451-.284 0-.534.15-.752.451L.327 28.463A1.72 1.72 0 000 29.5c0 .391.109.737.327 1.037L15.539 51.55c.218.301.468.451.751.451s.533-.15.75-.45l1.633-2.254c.218-.3.327-.646.327-1.038 0-.39-.11-.736-.327-1.036L5.843 29.5l12.83-17.72c.218-.3.327-.646.327-1.037zm40.674 17.72L44.46 7.45c-.218-.3-.468-.451-.75-.451-.284 0-.534.15-.752.451l-1.632 2.255c-.218.3-.326.646-.326 1.037 0 .391.108.736.326 1.037l12.83 17.72-12.83 17.722c-.218.3-.326.646-.326 1.036 0 .392.108.737.326 1.038l1.632 2.253c.218.301.468.451.751.451s.533-.15.75-.45l15.215-21.012c.217-.3.326-.647.326-1.038 0-.39-.109-.737-.326-1.037z" fill="#2352DE"/></symbol><symbol id="cross" viewBox="0 0 25 24"><path stroke="#fff" stroke-width="2" d="M2.1 1.686l21.214 21.213m-21.628 0L22.899 1.686"/></symbol><symbol id="dev-icon" viewBox="0 0 60 60"><path d="M31.883 60h-3.766a5.53 5.53 0 01-5.523-5.523v-1.274a24.225 24.225 0 01-3.762-1.562l-.902.903c-2.187 2.19-5.69 2.125-7.813 0l-2.661-2.662c-2.127-2.124-2.188-5.626 0-7.812l.903-.902a24.221 24.221 0 01-1.562-3.762H5.523A5.53 5.53 0 010 31.883v-3.766a5.53 5.53 0 015.524-5.523h1.273a24.224 24.224 0 011.562-3.762l-.903-.902c-2.188-2.185-2.127-5.687 0-7.813l2.662-2.661c2.128-2.131 5.63-2.184 7.812 0l.902.903a24.24 24.24 0 013.762-1.562V5.523A5.53 5.53 0 0128.117 0h3.766a5.53 5.53 0 015.523 5.523v1.274a24.22 24.22 0 013.762 1.562l.902-.903c2.187-2.19 5.69-2.125 7.813 0l2.661 2.662c2.127 2.124 2.188 5.626 0 7.812l-.903.902a24.224 24.224 0 011.562 3.762h1.273A5.53 5.53 0 0160 28.117v3.766a5.53 5.53 0 01-5.523 5.523h-1.274a24.228 24.228 0 01-1.562 3.762l.903.902c2.188 2.185 2.127 5.687 0 7.813l-2.662 2.661c-2.128 2.131-5.63 2.184-7.812 0l-.902-.902a24.242 24.242 0 01-3.762 1.56v1.275A5.53 5.53 0 0131.883 60zM19.42 47.95a20.718 20.718 0 005.37 2.23c.777.2 1.32.9 1.32 1.701v2.596c0 1.107.9 2.007 2.007 2.007h3.766a2.01 2.01 0 002.008-2.007V51.88c0-.801.542-1.502 1.318-1.702a20.72 20.72 0 005.371-2.23 1.758 1.758 0 012.138.27l1.838 1.84a2.007 2.007 0 002.84 0l2.663-2.663a2.008 2.008 0 000-2.839l-1.839-1.84a1.758 1.758 0 01-.27-2.137 20.711 20.711 0 002.23-5.37c.2-.777.9-1.32 1.701-1.32h2.596a2.01 2.01 0 002.008-2.007v-3.766a2.01 2.01 0 00-2.008-2.008H51.88a1.758 1.758 0 01-1.702-1.318 20.716 20.716 0 00-2.23-5.37 1.758 1.758 0 01.271-2.139l1.839-1.838a2.007 2.007 0 000-2.839l-2.663-2.663a2.007 2.007 0 00-2.839 0l-1.839 1.838a1.758 1.758 0 01-2.138.27 20.723 20.723 0 00-5.37-2.229c-.777-.2-1.32-.9-1.32-1.702V5.523a2.01 2.01 0 00-2.007-2.007h-3.766a2.01 2.01 0 00-2.008 2.007V8.12c0 .802-.542 1.502-1.318 1.702a20.72 20.72 0 00-5.37 2.23 1.758 1.758 0 01-2.139-.27l-1.838-1.84a2.007 2.007 0 00-2.839 0l-2.663 2.663a2.007 2.007 0 00-.001 2.839l1.84 1.84c.567.567.678 1.446.27 2.137a20.718 20.718 0 00-2.23 5.37c-.2.777-.9 1.32-1.702 1.32H5.524a2.01 2.01 0 00-2.008 2.007v3.766c0 1.107.9 2.008 2.008 2.008h2.595c.802 0 1.502.542 1.702 1.318a20.718 20.718 0 002.23 5.37 1.76 1.76 0 01-.27 2.139l-1.84 1.838a2.007 2.007 0 000 2.84l2.663 2.662a2.007 2.007 0 002.839 0l1.839-1.838c.418-.418 1.288-.773 2.138-.27z" fill="#2352DE"/><path d="M30 43.055c-7.198 0-13.055-5.857-13.055-13.055 0-7.198 5.857-13.055 13.055-13.055 7.199 0 13.055 5.857 13.055 13.055 0 7.198-5.856 13.055-13.055 13.055zm0-22.594c-5.26 0-9.539 4.28-9.539 9.539 0 5.26 4.28 9.54 9.539 9.54 5.26 0 9.54-4.28 9.54-9.54 0-5.26-4.28-9.54-9.54-9.54z" fill="#2352DE"/></symbol><symbol id="good-icon" viewBox="0 0 1171 1280" preserveAspectRatio="xMidYMid meet"><path d="M11555 12694c-1288-888-2591-2076-3945-3594-1475-1656-3026-3783-4315-5918-72-119-115-180-123-177s-716 474-1575 1048S29 5100 21 5105c-11 6-10 2 2-16C121 4949 3727 11 3732 10c3 0 34 66 68 148 1225 2918 2422 5234 3838 7427 1148 1777 2481 3497 3899 5028 91 97 163 177 161 177s-67-43-143-96z" transform="matrix(.1 0 0 -.1 0 1280)" fill="#2352DE"/></symbol><symbol id="images"><symbol id="arrow-down" viewBox="0 0 37 23"><path d="M18.5 22.046a2.584 2.584 0 01-1.832-.759L.76 5.377a2.591 2.591 0 113.664-3.664L18.5 15.791 32.577 1.714a2.591 2.591 0 013.664 3.664l-15.91 15.91a2.584 2.584 0 01-1.831.758z" fill="#fff"/></symbol><symbol id="button-burger" viewBox="0 0 30 22"><path stroke="#fff" stroke-width="2" d="M0 1h30M0 11h30M0 21h30"/></symbol><symbol id="chat-icon" viewBox="0 0 60 60"><path d="M35.625 11.25h-22.5a1.876 1.876 0 000 3.75h22.5a1.876 1.876 0 000-3.75zm-7.5 7.5h-15a1.876 1.876 0 000 3.75h15a1.876 1.876 0 000-3.75z" fill="#2352DE"/><path d="M41.25 0H7.5C3.364 0 0 3.364 0 7.5V45a1.873 1.873 0 003.075 1.44l10.729-8.94H41.25c4.136 0 7.5-3.364 7.5-7.5V7.5c0-4.136-3.364-7.5-7.5-7.5zM45 30c0 2.066-1.68 3.75-3.75 3.75H13.125c-.439 0-.863.154-1.2.435L3.75 40.999V7.5c0-2.066 1.68-3.75 3.75-3.75h33.75C43.32 3.75 45 5.434 45 7.5V30z" fill="#2352DE"/><path d="M52.5 15a1.876 1.876 0 000 3.75c2.07 0 3.75 1.684 3.75 3.75v31.721l-6.33-5.062a1.89 1.89 0 00-1.17-.409H22.5A3.754 3.754 0 0118.75 45v-1.875a1.876 1.876 0 00-3.75 0V45c0 4.136 3.364 7.5 7.5 7.5h25.59l8.861 7.091a1.893 1.893 0 001.988.225A1.88 1.88 0 0060 58.125V22.5c0-4.136-3.364-7.5-7.5-7.5z" fill="#2352DE"/></symbol><symbol id="code-icon" viewBox="0 0 60 60"><path d="M37.246.81L35.258.065c-.256-.116-.508-.08-.753.11-.246.19-.412.473-.498.852L22.05 57.442c-.086.379-.059.736.08 1.07.139.336.347.561.625.678l1.988.743c.256.117.508.08.753-.109.246-.19.412-.474.497-.852l11.96-56.414a1.737 1.737 0 00-.081-1.072c-.14-.335-.347-.56-.625-.677zM19 10.743c0-.39-.109-.737-.327-1.037L17.041 7.45c-.218-.3-.468-.451-.75-.451-.284 0-.534.15-.752.451L.327 28.463A1.72 1.72 0 000 29.5c0 .391.109.737.327 1.037L15.539 51.55c.218.301.468.451.751.451s.533-.15.75-.45l1.633-2.254c.218-.3.327-.646.327-1.038 0-.39-.11-.736-.327-1.036L5.843 29.5l12.83-17.72c.218-.3.327-.646.327-1.037zm40.674 17.72L44.46 7.45c-.218-.3-.468-.451-.75-.451-.284 0-.534.15-.752.451l-1.632 2.255c-.218.3-.326.646-.326 1.037 0 .391.108.736.326 1.037l12.83 17.72-12.83 17.722c-.218.3-.326.646-.326 1.036 0 .392.108.737.326 1.038l1.632 2.253c.218.301.468.451.751.451s.533-.15.75-.45l15.215-21.012c.217-.3.326-.647.326-1.038 0-.39-.109-.737-.326-1.037z" fill="#2352DE"/></symbol><symbol id="cross" viewBox="0 0 25 24"><path stroke="#fff" stroke-width="2" d="M2.1 1.686l21.214 21.213m-21.628 0L22.899 1.686"/></symbol><symbol id="dev-icon" viewBox="0 0 60 60"><path d="M31.883 60h-3.766a5.53 5.53 0 01-5.523-5.523v-1.274a24.225 24.225 0 01-3.762-1.562l-.902.903c-2.187 2.19-5.69 2.125-7.813 0l-2.661-2.662c-2.127-2.124-2.188-5.626 0-7.812l.903-.902a24.221 24.221 0 01-1.562-3.762H5.523A5.53 5.53 0 010 31.883v-3.766a5.53 5.53 0 015.524-5.523h1.273a24.224 24.224 0 011.562-3.762l-.903-.902c-2.188-2.185-2.127-5.687 0-7.813l2.662-2.661c2.128-2.131 5.63-2.184 7.812 0l.902.903a24.24 24.24 0 013.762-1.562V5.523A5.53 5.53 0 0128.117 0h3.766a5.53 5.53 0 015.523 5.523v1.274a24.22 24.22 0 013.762 1.562l.902-.903c2.187-2.19 5.69-2.125 7.813 0l2.661 2.662c2.127 2.124 2.188 5.626 0 7.812l-.903.902a24.224 24.224 0 011.562 3.762h1.273A5.53 5.53 0 0160 28.117v3.766a5.53 5.53 0 01-5.523 5.523h-1.274a24.228 24.228 0 01-1.562 3.762l.903.902c2.188 2.185 2.127 5.687 0 7.813l-2.662 2.661c-2.128 2.131-5.63 2.184-7.812 0l-.902-.902a24.242 24.242 0 01-3.762 1.56v1.275A5.53 5.53 0 0131.883 60zM19.42 47.95a20.718 20.718 0 005.37 2.23c.777.2 1.32.9 1.32 1.701v2.596c0 1.107.9 2.007 2.007 2.007h3.766a2.01 2.01 0 002.008-2.007V51.88c0-.801.542-1.502 1.318-1.702a20.72 20.72 0 005.371-2.23 1.758 1.758 0 012.138.27l1.838 1.84a2.007 2.007 0 002.84 0l2.663-2.663a2.008 2.008 0 000-2.839l-1.839-1.84a1.758 1.758 0 01-.27-2.137 20.711 20.711 0 002.23-5.37c.2-.777.9-1.32 1.701-1.32h2.596a2.01 2.01 0 002.008-2.007v-3.766a2.01 2.01 0 00-2.008-2.008H51.88a1.758 1.758 0 01-1.702-1.318 20.716 20.716 0 00-2.23-5.37 1.758 1.758 0 01.271-2.139l1.839-1.838a2.007 2.007 0 000-2.839l-2.663-2.663a2.007 2.007 0 00-2.839 0l-1.839 1.838a1.758 1.758 0 01-2.138.27 20.723 20.723 0 00-5.37-2.229c-.777-.2-1.32-.9-1.32-1.702V5.523a2.01 2.01 0 00-2.007-2.007h-3.766a2.01 2.01 0 00-2.008 2.007V8.12c0 .802-.542 1.502-1.318 1.702a20.72 20.72 0 00-5.37 2.23 1.758 1.758 0 01-2.139-.27l-1.838-1.84a2.007 2.007 0 00-2.839 0l-2.663 2.663a2.007 2.007 0 00-.001 2.839l1.84 1.84c.567.567.678 1.446.27 2.137a20.718 20.718 0 00-2.23 5.37c-.2.777-.9 1.32-1.702 1.32H5.524a2.01 2.01 0 00-2.008 2.007v3.766c0 1.107.9 2.008 2.008 2.008h2.595c.802 0 1.502.542 1.702 1.318a20.718 20.718 0 002.23 5.37 1.76 1.76 0 01-.27 2.139l-1.84 1.838a2.007 2.007 0 000 2.84l2.663 2.662a2.007 2.007 0 002.839 0l1.839-1.838c.418-.418 1.288-.773 2.138-.27z" fill="#2352DE"/><path d="M30 43.055c-7.198 0-13.055-5.857-13.055-13.055 0-7.198 5.857-13.055 13.055-13.055 7.199 0 13.055 5.857 13.055 13.055 0 7.198-5.856 13.055-13.055 13.055zm0-22.594c-5.26 0-9.539 4.28-9.539 9.539 0 5.26 4.28 9.54 9.539 9.54 5.26 0 9.54-4.28 9.54-9.54 0-5.26-4.28-9.54-9.54-9.54z" fill="#2352DE"/></symbol><symbol id="good-icon" viewBox="0 0 1171 1280" preserveAspectRatio="xMidYMid meet"><path d="M11555 12694c-1288-888-2591-2076-3945-3594-1475-1656-3026-3783-4315-5918-72-119-115-180-123-177s-716 474-1575 1048S29 5100 21 5105c-11 6-10 2 2-16C121 4949 3727 11 3732 10c3 0 34 66 68 148 1225 2918 2422 5234 3838 7427 1148 1777 2481 3497 3899 5028 91 97 163 177 161 177s-67-43-143-96z" transform="matrix(.1 0 0 -.1 0 1280)" fill="#2352DE"/></symbol><symbol id="images"><symbol id="arrow-down" viewBox="0 0 37 23"><path d="M18.5 22.046a2.584 2.584 0 01-1.832-.759L.76 5.377a2.591 2.591 0 113.664-3.664L18.5 15.791 32.577 1.714a2.591 2.591 0 013.664 3.664l-15.91 15.91a2.584 2.584 0 01-1.831.758z" fill="#fff"/></symbol><symbol id="button-burger" viewBox="0 0 30 22"><path stroke="#fff" stroke-width="2" d="M0 1h30M0 11h30M0 21h30"/></symbol><symbol id="chat-icon" viewBox="0 0 60 60"><path d="M35.625 11.25h-22.5a1.876 1.876 0 000 3.75h22.5a1.876 1.876 0 000-3.75zm-7.5 7.5h-15a1.876 1.876 0 000 3.75h15a1.876 1.876 0 000-3.75z" fill="#2352DE"/><path d="M41.25 0H7.5C3.364 0 0 3.364 0 7.5V45a1.873 1.873 0 003.075 1.44l10.729-8.94H41.25c4.136 0 7.5-3.364 7.5-7.5V7.5c0-4.136-3.364-7.5-7.5-7.5zM45 30c0 2.066-1.68 3.75-3.75 3.75H13.125c-.439 0-.863.154-1.2.435L3.75 40.999V7.5c0-2.066 1.68-3.75 3.75-3.75h33.75C43.32 3.75 45 5.434 45 7.5V30z" fill="#2352DE"/><path d="M52.5 15a1.876 1.876 0 000 3.75c2.07 0 3.75 1.684 3.75 3.75v31.721l-6.33-5.062a1.89 1.89 0 00-1.17-.409H22.5A3.754 3.754 0 0118.75 45v-1.875a1.876 1.876 0 00-3.75 0V45c0 4.136 3.364 7.5 7.5 7.5h25.59l8.861 7.091a1.893 1.893 0 001.988.225A1.88 1.88 0 0060 58.125V22.5c0-4.136-3.364-7.5-7.5-7.5z" fill="#2352DE"/></symbol><symbol id="code-icon" viewBox="0 0 60 60"><path d="M37.246.81L35.258.065c-.256-.116-.508-.08-.753.11-.246.19-.412.473-.498.852L22.05 57.442c-.086.379-.059.736.08 1.07.139.336.347.561.625.678l1.988.743c.256.117.508.08.753-.109.246-.19.412-.474.497-.852l11.96-56.414a1.737 1.737 0 00-.081-1.072c-.14-.335-.347-.56-.625-.677zM19 10.743c0-.39-.109-.737-.327-1.037L17.041 7.45c-.218-.3-.468-.451-.75-.451-.284 0-.534.15-.752.451L.327 28.463A1.72 1.72 0 000 29.5c0 .391.109.737.327 1.037L15.539 51.55c.218.301.468.451.751.451s.533-.15.75-.45l1.633-2.254c.218-.3.327-.646.327-1.038 0-.39-.11-.736-.327-1.036L5.843 29.5l12.83-17.72c.218-.3.327-.646.327-1.037zm40.674 17.72L44.46 7.45c-.218-.3-.468-.451-.75-.451-.284 0-.534.15-.752.451l-1.632 2.255c-.218.3-.326.646-.326 1.037 0 .391.108.736.326 1.037l12.83 17.72-12.83 17.722c-.218.3-.326.646-.326 1.036 0 .392.108.737.326 1.038l1.632 2.253c.218.301.468.451.751.451s.533-.15.75-.45l15.215-21.012c.217-.3.326-.647.326-1.038 0-.39-.109-.737-.326-1.037z" fill="#2352DE"/></symbol><symbol id="cross" viewBox="0 0 25 24"><path stroke="#fff" stroke-width="2" d="M2.1 1.686l21.214 21.213m-21.628 0L22.899 1.686"/></symbol><symbol id="dev-icon" viewBox="0 0 60 60"><path d="M31.883 60h-3.766a5.53 5.53 0 01-5.523-5.523v-1.274a24.225 24.225 0 01-3.762-1.562l-.902.903c-2.187 2.19-5.69 2.125-7.813 0l-2.661-2.662c-2.127-2.124-2.188-5.626 0-7.812l.903-.902a24.221 24.221 0 01-1.562-3.762H5.523A5.53 5.53 0 010 31.883v-3.766a5.53 5.53 0 015.524-5.523h1.273a24.224 24.224 0 011.562-3.762l-.903-.902c-2.188-2.185-2.127-5.687 0-7.813l2.662-2.661c2.128-2.131 5.63-2.184 7.812 0l.902.903a24.24 24.24 0 013.762-1.562V5.523A5.53 5.53 0 0128.117 0h3.766a5.53 5.53 0 015.523 5.523v1.274a24.22 24.22 0 013.762 1.562l.902-.903c2.187-2.19 5.69-2.125 7.813 0l2.661 2.662c2.127 2.124 2.188 5.626 0 7.812l-.903.902a24.224 24.224 0 011.562 3.762h1.273A5.53 5.53 0 0160 28.117v3.766a5.53 5.53 0 01-5.523 5.523h-1.274a24.228 24.228 0 01-1.562 3.762l.903.902c2.188 2.185 2.127 5.687 0 7.813l-2.662 2.661c-2.128 2.131-5.63 2.184-7.812 0l-.902-.902a24.242 24.242 0 01-3.762 1.56v1.275A5.53 5.53 0 0131.883 60zM19.42 47.95a20.718 20.718 0 005.37 2.23c.777.2 1.32.9 1.32 1.701v2.596c0 1.107.9 2.007 2.007 2.007h3.766a2.01 2.01 0 002.008-2.007V51.88c0-.801.542-1.502 1.318-1.702a20.72 20.72 0 005.371-2.23 1.758 1.758 0 012.138.27l1.838 1.84a2.007 2.007 0 002.84 0l2.663-2.663a2.008 2.008 0 000-2.839l-1.839-1.84a1.758 1.758 0 01-.27-2.137 20.711 20.711 0 002.23-5.37c.2-.777.9-1.32 1.701-1.32h2.596a2.01 2.01 0 002.008-2.007v-3.766a2.01 2.01 0 00-2.008-2.008H51.88a1.758 1.758 0 01-1.702-1.318 20.716 20.716 0 00-2.23-5.37 1.758 1.758 0 01.271-2.139l1.839-1.838a2.007 2.007 0 000-2.839l-2.663-2.663a2.007 2.007 0 00-2.839 0l-1.839 1.838a1.758 1.758 0 01-2.138.27 20.723 20.723 0 00-5.37-2.229c-.777-.2-1.32-.9-1.32-1.702V5.523a2.01 2.01 0 00-2.007-2.007h-3.766a2.01 2.01 0 00-2.008 2.007V8.12c0 .802-.542 1.502-1.318 1.702a20.72 20.72 0 00-5.37 2.23 1.758 1.758 0 01-2.139-.27l-1.838-1.84a2.007 2.007 0 00-2.839 0l-2.663 2.663a2.007 2.007 0 00-.001 2.839l1.84 1.84c.567.567.678 1.446.27 2.137a20.718 20.718 0 00-2.23 5.37c-.2.777-.9 1.32-1.702 1.32H5.524a2.01 2.01 0 00-2.008 2.007v3.766c0 1.107.9 2.008 2.008 2.008h2.595c.802 0 1.502.542 1.702 1.318a20.718 20.718 0 002.23 5.37 1.76 1.76 0 01-.27 2.139l-1.84 1.838a2.007 2.007 0 000 2.84l2.663 2.662a2.007 2.007 0 002.839 0l1.839-1.838c.418-.418 1.288-.773 2.138-.27z" fill="#2352DE"/><path d="M30 43.055c-7.198 0-13.055-5.857-13.055-13.055 0-7.198 5.857-13.055 13.055-13.055 7.199 0 13.055 5.857 13.055 13.055 0 7.198-5.856 13.055-13.055 13.055zm0-22.594c-5.26 0-9.539 4.28-9.539 9.539 0 5.26 4.28 9.54 9.539 9.54 5.26 0 9.54-4.28 9.54-9.54 0-5.26-4.28-9.54-9.54-9.54z" fill="#2352DE"/></symbol><symbol id="good-icon" viewBox="0 0 1171 1280" preserveAspectRatio="xMidYMid meet"><path d="M11555 12694c-1288-888-2591-2076-3945-3594-1475-1656-3026-3783-4315-5918-72-119-115-180-123-177s-716 474-1575 1048S29 5100 21 5105c-11 6-10 2 2-16C121 4949 3727 11 3732 10c3 0 34 66 68 148 1225 2918 2422 5234 3838 7427 1148 1777 2481 3497 3899 5028 91 97 163 177 161 177s-67-43-143-96z" transform="matrix(.1 0 0 -.1 0 1280)" fill="#2352DE"/></symbol><symbol id="logo" viewBox="0 0 159 53"><path fill-rule="evenodd" clip-rule="evenodd" d="M0 26.151v26.151l22.95.005c12.622.003 48.26.004 79.195.003l56.246-.003.138-26.153L158.667 0H0v26.151zm45.634.27v24.263H1.592V2.157h44.042V26.42zM10.057 11.887c-1.048 1.065-1.08 1.603-.928 15.685l.157 14.582 1.253 1.03c1.154.95 2.241 1.03 13.89 1.03 13.611 0 14.317-.142 14.299-2.869-.02-2.709-.276-2.775-12.044-3.062l-11.03-.27-.143-12.64c-.122-10.81-.269-12.78-1.011-13.614-1.15-1.292-3.1-1.236-4.443.128zm52.234 5.681c.178.47.323 3.866.323 7.549v6.696h6.118c4.973 0 6.177.152 6.427.815.17.449.013 1.177-.347 1.618-.981 1.202-13.89 1.163-15.08-.045-.681-.694-.833-2.29-.833-8.808 0-4.377.16-8.12.354-8.318.676-.687 2.718-.355 3.038.493zm31.248-.11c7.146 3.106 7.146 13.74 0 16.847-2.73 1.188-7.996.943-10.48-.488-3.152-1.813-4.527-4.224-4.527-7.936 0-3.85 1.434-6.245 4.76-7.953 2.76-1.416 7.565-1.637 10.247-.47zm24.75.202c2.472 1.281 3.194 2.552 2.089 3.674-.781.795-1.03.773-3.021-.259-5.172-2.681-11.232-.088-11.232 4.806 0 1.868 1.504 4.24 3.279 5.173 2.425 1.274 7.174.807 8.483-.836 1.761-2.21 1.305-2.658-2.874-2.83-3.708-.153-3.847-.207-3.847-1.507 0-1.322.088-1.35 4.585-1.502 5.362-.181 6.292.359 6.292 3.656 0 4.079-3.862 7.013-9.234 7.013-3.609 0-5.404-.67-7.623-2.845-4.396-4.31-2.901-12.218 2.786-14.736 2.37-1.05 8.13-.942 10.317.193zm23.409.297c2.708 1.455 4.754 4.865 4.754 7.924 0 3.06-2.046 6.47-4.754 7.925-4.641 2.494-11.806 1.164-14.582-2.707-.851-1.186-1.093-2.34-1.093-5.218 0-2.877.242-4.032 1.093-5.217 2.776-3.87 9.941-5.2 14.582-2.707zm-57.164 3.046c-2.086 1.293-2.97 4.005-2.212 6.794 1.462 5.38 10.9 5.39 12.646.013.862-2.653-.079-5.447-2.296-6.821-2.193-1.359-5.932-1.353-8.138.014zm47.591-.171c-2.136 1.54-2.618 2.474-2.636 5.11-.014 1.988.267 2.777 1.393 3.92 1.717 1.746 3.213 2.169 6.378 1.807 3.518-.403 5.213-2.285 5.213-5.788 0-3.826-1.729-5.512-5.947-5.797-2.333-.157-3.394.023-4.401.748z" fill="#fff"/></symbol><symbol id="play" viewBox="0 0 86 100"><path d="M0 0l85.714 50L0 100V0z" fill="#fff"/></symbol><symbol id="arrow-left" viewBox="0 0 35 35"><path fill-rule="evenodd" clip-rule="evenodd" d="M34.83 18.601H5.125l14.27 14.341-1.641 1.65L.68 17.435 17.756.275l1.642 1.65L5.125 16.268H34.83v2.333z" fill="#333"/></symbol><symbol id="arrow-right" viewBox="0 0 35 35"><path fill-rule="evenodd" clip-rule="evenodd" d="M34.15 17.435L17.073 34.594l-1.642-1.65 14.27-14.34H0V16.27h29.705L15.432 1.925l1.641-1.65 17.076 17.16z" fill="#333"/></symbol><symbol id="facebook" viewBox="0 0 44 44"><path d="M38.844 0H5.156A5.162 5.162 0 000 5.156v33.688A5.162 5.162 0 005.156 44h33.688A5.162 5.162 0 0044 38.844V5.156A5.162 5.162 0 0038.844 0zm1.718 38.844a1.72 1.72 0 01-1.718 1.718h-9.797V26.556h5.31l.877-5.328h-6.187V17.53c0-1.458 1.12-2.578 2.578-2.578h3.523V9.625h-3.523c-4.376 0-7.904 3.545-7.904 7.921v3.68h-5.159v5.329h5.159v14.008H5.156a1.72 1.72 0 01-1.718-1.72V5.157a1.72 1.72 0 011.718-1.718h33.688a1.72 1.72 0 011.718 1.718v33.688z" fill="#2352DE"/></symbol><symbol id="instagram" viewBox="0 0 44 44"><path d="M31.219 0H12.78C5.734 0 0 5.734 0 12.781V31.22C0 38.266 5.734 44 12.781 44H31.22C38.266 44 44 38.266 44 31.219V12.78C44 5.734 38.266 0 31.219 0zm9.343 31.219c0 5.152-4.191 9.343-9.343 9.343H12.78c-5.152 0-9.344-4.191-9.344-9.343V12.78c0-5.152 4.192-9.344 9.344-9.344h18.44c5.152 0 9.343 4.192 9.343 9.344v18.44z" fill="#2352DE"/><path d="M22 10.14c-6.54 0-11.86 5.32-11.86 11.86 0 6.54 5.32 11.86 11.86 11.86 6.54 0 11.86-5.32 11.86-11.86 0-6.54-5.32-11.86-11.86-11.86zm0 20.282c-4.644 0-8.422-3.778-8.422-8.422s3.778-8.422 8.422-8.422 8.422 3.778 8.422 8.422-3.778 8.422-8.422 8.422zm12.031-18.734a1.719 1.719 0 100-3.438 1.719 1.719 0 000 3.438z" fill="#2352DE"/></symbol><symbol id="telegram" viewBox="0 0 44 46"><g clip-path="url(#clip0)"><path d="M43.32 4.492c-.537-.675-1.342-1.047-2.266-1.047-.503 0-1.035.109-1.583.323L2.227 18.381C.25 19.156-.016 20.32.001 20.944c.017.625.347 1.77 2.363 2.43l.036.011 7.726 2.272 4.178 12.28c.57 1.674 1.848 2.714 3.337 2.714.94 0 1.863-.405 2.671-1.17l4.779-4.522 6.93 5.736.003.002.066.055.018.014c.77.615 1.612.939 2.433.94 1.606 0 2.883-1.222 3.256-3.111l6.102-30.97c.245-1.243.04-2.356-.578-3.133zM12.71 25.226L27.615 17.4l-9.28 10.135a1.34 1.34 0 00-.313.59l-1.79 7.451-3.522-10.35zm5.855 12.306a2.43 2.43 0 01-.185.159l1.66-6.912 3.02 2.5-4.494 4.253zM41.373 7.1L35.27 38.07c-.059.296-.246.986-.729.986-.238 0-.538-.133-.844-.376l-7.854-6.5a.013.013 0 00-.004-.002l-4.673-3.868 13.421-14.657c.43-.47.47-1.188.093-1.704a1.267 1.267 0 00-1.618-.384l-22.074 11.59-7.83-2.302L40.39 6.244c.315-.124.534-.15.663-.15.078 0 .219.01.27.076.07.086.157.379.049.929z" fill="#2352DE"/></g></symbol><symbol id="favicon" viewBox="0 0 32 32"><path fill="#2352DE" d="M0 0h32v32H0z"/><path fill-rule="evenodd" clip-rule="evenodd" d="M6.261 4.995c.943-.958 2.313-.997 3.122-.09.521.586.624 1.971.71 9.567l.1 8.88 7.75.19c8.27.202 8.45.248 8.463 2.152.013 1.916-.483 2.016-10.046 2.016-8.186 0-8.949-.057-9.76-.724l-.88-.724-.11-10.246c-.107-9.894-.085-10.272.651-11.02z" fill="#fff"/></symbol><symbol id="safari-pinned-tab" viewBox="0 0 574 574" preserveAspectRatio="xMidYMid meet"><path d="M300 2870V0h5140v5740H300V2870z" transform="matrix(.1 0 0 -.1 0 574)"/></symbol></symbol><symbol id="logo" viewBox="0 0 159 53"><path fill-rule="evenodd" clip-rule="evenodd" d="M0 26.151v26.151l22.95.005c12.622.003 48.26.004 79.195.003l56.246-.003.138-26.153L158.667 0H0v26.151zm45.634.27v24.263H1.592V2.157h44.042V26.42zM10.057 11.887c-1.048 1.065-1.08 1.603-.928 15.685l.157 14.582 1.253 1.03c1.154.95 2.241 1.03 13.89 1.03 13.611 0 14.317-.142 14.299-2.869-.02-2.709-.276-2.775-12.044-3.062l-11.03-.27-.143-12.64c-.122-10.81-.269-12.78-1.011-13.614-1.15-1.292-3.1-1.236-4.443.128zm52.234 5.681c.178.47.323 3.866.323 7.549v6.696h6.118c4.973 0 6.177.152 6.427.815.17.449.013 1.177-.347 1.618-.981 1.202-13.89 1.163-15.08-.045-.681-.694-.833-2.29-.833-8.808 0-4.377.16-8.12.354-8.318.676-.687 2.718-.355 3.038.493zm31.248-.11c7.146 3.106 7.146 13.74 0 16.847-2.73 1.188-7.996.943-10.48-.488-3.152-1.813-4.527-4.224-4.527-7.936 0-3.85 1.434-6.245 4.76-7.953 2.76-1.416 7.565-1.637 10.247-.47zm24.75.202c2.472 1.281 3.194 2.552 2.089 3.674-.781.795-1.03.773-3.021-.259-5.172-2.681-11.232-.088-11.232 4.806 0 1.868 1.504 4.24 3.279 5.173 2.425 1.274 7.174.807 8.483-.836 1.761-2.21 1.305-2.658-2.874-2.83-3.708-.153-3.847-.207-3.847-1.507 0-1.322.088-1.35 4.585-1.502 5.362-.181 6.292.359 6.292 3.656 0 4.079-3.862 7.013-9.234 7.013-3.609 0-5.404-.67-7.623-2.845-4.396-4.31-2.901-12.218 2.786-14.736 2.37-1.05 8.13-.942 10.317.193zm23.409.297c2.708 1.455 4.754 4.865 4.754 7.924 0 3.06-2.046 6.47-4.754 7.925-4.641 2.494-11.806 1.164-14.582-2.707-.851-1.186-1.093-2.34-1.093-5.218 0-2.877.242-4.032 1.093-5.217 2.776-3.87 9.941-5.2 14.582-2.707zm-57.164 3.046c-2.086 1.293-2.97 4.005-2.212 6.794 1.462 5.38 10.9 5.39 12.646.013.862-2.653-.079-5.447-2.296-6.821-2.193-1.359-5.932-1.353-8.138.014zm47.591-.171c-2.136 1.54-2.618 2.474-2.636 5.11-.014 1.988.267 2.777 1.393 3.92 1.717 1.746 3.213 2.169 6.378 1.807 3.518-.403 5.213-2.285 5.213-5.788 0-3.826-1.729-5.512-5.947-5.797-2.333-.157-3.394.023-4.401.748z" fill="#fff"/></symbol><symbol id="play" viewBox="0 0 86 100"><path d="M0 0l85.714 50L0 100V0z" fill="#fff"/></symbol><symbol id="arrow-left" viewBox="0 0 35 35"><path fill-rule="evenodd" clip-rule="evenodd" d="M34.83 18.601H5.125l14.27 14.341-1.641 1.65L.68 17.435 17.756.275l1.642 1.65L5.125 16.268H34.83v2.333z" fill="#333"/></symbol><symbol id="arrow-right" viewBox="0 0 35 35"><path fill-rule="evenodd" clip-rule="evenodd" d="M34.15 17.435L17.073 34.594l-1.642-1.65 14.27-14.34H0V16.27h29.705L15.432 1.925l1.641-1.65 17.076 17.16z" fill="#333"/></symbol><symbol id="facebook" viewBox="0 0 44 44"><path d="M38.844 0H5.156A5.162 5.162 0 000 5.156v33.688A5.162 5.162 0 005.156 44h33.688A5.162 5.162 0 0044 38.844V5.156A5.162 5.162 0 0038.844 0zm1.718 38.844a1.72 1.72 0 01-1.718 1.718h-9.797V26.556h5.31l.877-5.328h-6.187V17.53c0-1.458 1.12-2.578 2.578-2.578h3.523V9.625h-3.523c-4.376 0-7.904 3.545-7.904 7.921v3.68h-5.159v5.329h5.159v14.008H5.156a1.72 1.72 0 01-1.718-1.72V5.157a1.72 1.72 0 011.718-1.718h33.688a1.72 1.72 0 011.718 1.718v33.688z" fill="#2352DE"/></symbol><symbol id="instagram" viewBox="0 0 44 44"><path d="M31.219 0H12.78C5.734 0 0 5.734 0 12.781V31.22C0 38.266 5.734 44 12.781 44H31.22C38.266 44 44 38.266 44 31.219V12.78C44 5.734 38.266 0 31.219 0zm9.343 31.219c0 5.152-4.191 9.343-9.343 9.343H12.78c-5.152 0-9.344-4.191-9.344-9.343V12.78c0-5.152 4.192-9.344 9.344-9.344h18.44c5.152 0 9.343 4.192 9.343 9.344v18.44z" fill="#2352DE"/><path d="M22 10.14c-6.54 0-11.86 5.32-11.86 11.86 0 6.54 5.32 11.86 11.86 11.86 6.54 0 11.86-5.32 11.86-11.86 0-6.54-5.32-11.86-11.86-11.86zm0 20.282c-4.644 0-8.422-3.778-8.422-8.422s3.778-8.422 8.422-8.422 8.422 3.778 8.422 8.422-3.778 8.422-8.422 8.422zm12.031-18.734a1.719 1.719 0 100-3.438 1.719 1.719 0 000 3.438z" fill="#2352DE"/></symbol><symbol id="telegram" viewBox="0 0 44 46"><g clip-path="url(#clip0)"><path d="M43.32 4.492c-.537-.675-1.342-1.047-2.266-1.047-.503 0-1.035.109-1.583.323L2.227 18.381C.25 19.156-.016 20.32.001 20.944c.017.625.347 1.77 2.363 2.43l.036.011 7.726 2.272 4.178 12.28c.57 1.674 1.848 2.714 3.337 2.714.94 0 1.863-.405 2.671-1.17l4.779-4.522 6.93 5.736.003.002.066.055.018.014c.77.615 1.612.939 2.433.94 1.606 0 2.883-1.222 3.256-3.111l6.102-30.97c.245-1.243.04-2.356-.578-3.133zM12.71 25.226L27.615 17.4l-9.28 10.135a1.34 1.34 0 00-.313.59l-1.79 7.451-3.522-10.35zm5.855 12.306a2.43 2.43 0 01-.185.159l1.66-6.912 3.02 2.5-4.494 4.253zM41.373 7.1L35.27 38.07c-.059.296-.246.986-.729.986-.238 0-.538-.133-.844-.376l-7.854-6.5a.013.013 0 00-.004-.002l-4.673-3.868 13.421-14.657c.43-.47.47-1.188.093-1.704a1.267 1.267 0 00-1.618-.384l-22.074 11.59-7.83-2.302L40.39 6.244c.315-.124.534-.15.663-.15.078 0 .219.01.27.076.07.086.157.379.049.929z" fill="#2352DE"/></g></symbol><symbol id="safari-pinned-tab" viewBox="0 0 574 574" preserveAspectRatio="xMidYMid meet"><path d="M300 2870V0h5140v5740H300V2870z" transform="matrix(.1 0 0 -.1 0 574)"/></symbol><symbol id="favicon" viewBox="0 0 32 32"><path fill="#2352DE" d="M0 0h32v32H0z"/><path fill-rule="evenodd" clip-rule="evenodd" d="M6.261 4.995c.943-.958 2.313-.997 3.122-.09.521.586.624 1.971.71 9.567l.1 8.88 7.75.19c8.27.202 8.45.248 8.463 2.152.013 1.916-.483 2.016-10.046 2.016-8.186 0-8.949-.057-9.76-.724l-.88-.724-.11-10.246c-.107-9.894-.085-10.272.651-11.02z" fill="#fff"/></symbol></symbol><symbol id="logo" viewBox="0 0 159 53"><path fill-rule="evenodd" clip-rule="evenodd" d="M0 26.151v26.151l22.95.005c12.622.003 48.26.004 79.195.003l56.246-.003.138-26.153L158.667 0H0v26.151zm45.634.27v24.263H1.592V2.157h44.042V26.42zM10.057 11.887c-1.048 1.065-1.08 1.603-.928 15.685l.157 14.582 1.253 1.03c1.154.95 2.241 1.03 13.89 1.03 13.611 0 14.317-.142 14.299-2.869-.02-2.709-.276-2.775-12.044-3.062l-11.03-.27-.143-12.64c-.122-10.81-.269-12.78-1.011-13.614-1.15-1.292-3.1-1.236-4.443.128zm52.234 5.681c.178.47.323 3.866.323 7.549v6.696h6.118c4.973 0 6.177.152 6.427.815.17.449.013 1.177-.347 1.618-.981 1.202-13.89 1.163-15.08-.045-.681-.694-.833-2.29-.833-8.808 0-4.377.16-8.12.354-8.318.676-.687 2.718-.355 3.038.493zm31.248-.11c7.146 3.106 7.146 13.74 0 16.847-2.73 1.188-7.996.943-10.48-.488-3.152-1.813-4.527-4.224-4.527-7.936 0-3.85 1.434-6.245 4.76-7.953 2.76-1.416 7.565-1.637 10.247-.47zm24.75.202c2.472 1.281 3.194 2.552 2.089 3.674-.781.795-1.03.773-3.021-.259-5.172-2.681-11.232-.088-11.232 4.806 0 1.868 1.504 4.24 3.279 5.173 2.425 1.274 7.174.807 8.483-.836 1.761-2.21 1.305-2.658-2.874-2.83-3.708-.153-3.847-.207-3.847-1.507 0-1.322.088-1.35 4.585-1.502 5.362-.181 6.292.359 6.292 3.656 0 4.079-3.862 7.013-9.234 7.013-3.609 0-5.404-.67-7.623-2.845-4.396-4.31-2.901-12.218 2.786-14.736 2.37-1.05 8.13-.942 10.317.193zm23.409.297c2.708 1.455 4.754 4.865 4.754 7.924 0 3.06-2.046 6.47-4.754 7.925-4.641 2.494-11.806 1.164-14.582-2.707-.851-1.186-1.093-2.34-1.093-5.218 0-2.877.242-4.032 1.093-5.217 2.776-3.87 9.941-5.2 14.582-2.707zm-57.164 3.046c-2.086 1.293-2.97 4.005-2.212 6.794 1.462 5.38 10.9 5.39 12.646.013.862-2.653-.079-5.447-2.296-6.821-2.193-1.359-5.932-1.353-8.138.014zm47.591-.171c-2.136 1.54-2.618 2.474-2.636 5.11-.014 1.988.267 2.777 1.393 3.92 1.717 1.746 3.213 2.169 6.378 1.807 3.518-.403 5.213-2.285 5.213-5.788 0-3.826-1.729-5.512-5.947-5.797-2.333-.157-3.394.023-4.401.748z" fill="#fff"/></symbol><symbol id="play" viewBox="0 0 86 100"><path d="M0 0l85.714 50L0 100V0z" fill="#fff"/></symbol><symbol id="arrow-left" viewBox="0 0 35 35"><path fill-rule="evenodd" clip-rule="evenodd" d="M34.83 18.601H5.125l14.27 14.341-1.641 1.65L.68 17.435 17.756.275l1.642 1.65L5.125 16.268H34.83v2.333z" fill="#333"/></symbol><symbol id="arrow-right" viewBox="0 0 35 35"><path fill-rule="evenodd" clip-rule="evenodd" d="M34.15 17.435L17.073 34.594l-1.642-1.65 14.27-14.34H0V16.27h29.705L15.432 1.925l1.641-1.65 17.076 17.16z" fill="#333"/></symbol><symbol id="facebook" viewBox="0 0 44 44"><path d="M38.844 0H5.156A5.162 5.162 0 000 5.156v33.688A5.162 5.162 0 005.156 44h33.688A5.162 5.162 0 0044 38.844V5.156A5.162 5.162 0 0038.844 0zm1.718 38.844a1.72 1.72 0 01-1.718 1.718h-9.797V26.556h5.31l.877-5.328h-6.187V17.53c0-1.458 1.12-2.578 2.578-2.578h3.523V9.625h-3.523c-4.376 0-7.904 3.545-7.904 7.921v3.68h-5.159v5.329h5.159v14.008H5.156a1.72 1.72 0 01-1.718-1.72V5.157a1.72 1.72 0 011.718-1.718h33.688a1.72 1.72 0 011.718 1.718v33.688z" fill="#2352DE"/></symbol><symbol id="instagram" viewBox="0 0 44 44"><path d="M31.219 0H12.78C5.734 0 0 5.734 0 12.781V31.22C0 38.266 5.734 44 12.781 44H31.22C38.266 44 44 38.266 44 31.219V12.78C44 5.734 38.266 0 31.219 0zm9.343 31.219c0 5.152-4.191 9.343-9.343 9.343H12.78c-5.152 0-9.344-4.191-9.344-9.343V12.78c0-5.152 4.192-9.344 9.344-9.344h18.44c5.152 0 9.343 4.192 9.343 9.344v18.44z" fill="#2352DE"/><path d="M22 10.14c-6.54 0-11.86 5.32-11.86 11.86 0 6.54 5.32 11.86 11.86 11.86 6.54 0 11.86-5.32 11.86-11.86 0-6.54-5.32-11.86-11.86-11.86zm0 20.282c-4.644 0-8.422-3.778-8.422-8.422s3.778-8.422 8.422-8.422 8.422 3.778 8.422 8.422-3.778 8.422-8.422 8.422zm12.031-18.734a1.719 1.719 0 100-3.438 1.719 1.719 0 000 3.438z" fill="#2352DE"/></symbol><symbol id="telegram" viewBox="0 0 44 46"><g clip-path="url(#clip0)"><path d="M43.32 4.492c-.537-.675-1.342-1.047-2.266-1.047-.503 0-1.035.109-1.583.323L2.227 18.381C.25 19.156-.016 20.32.001 20.944c.017.625.347 1.77 2.363 2.43l.036.011 7.726 2.272 4.178 12.28c.57 1.674 1.848 2.714 3.337 2.714.94 0 1.863-.405 2.671-1.17l4.779-4.522 6.93 5.736.003.002.066.055.018.014c.77.615 1.612.939 2.433.94 1.606 0 2.883-1.222 3.256-3.111l6.102-30.97c.245-1.243.04-2.356-.578-3.133zM12.71 25.226L27.615 17.4l-9.28 10.135a1.34 1.34 0 00-.313.59l-1.79 7.451-3.522-10.35zm5.855 12.306a2.43 2.43 0 01-.185.159l1.66-6.912 3.02 2.5-4.494 4.253zM41.373 7.1L35.27 38.07c-.059.296-.246.986-.729.986-.238 0-.538-.133-.844-.376l-7.854-6.5a.013.013 0 00-.004-.002l-4.673-3.868 13.421-14.657c.43-.47.47-1.188.093-1.704a1.267 1.267 0 00-1.618-.384l-22.074 11.59-7.83-2.302L40.39 6.244c.315-.124.534-.15.663-.15.078 0 .219.01.27.076.07.086.157.379.049.929z" fill="#2352DE"/></g></symbol><symbol id="safari-pinned-tab" viewBox="0 0 574 574" preserveAspectRatio="xMidYMid meet"><path d="M300 2870V0h5140v5740H300V2870z" transform="matrix(.1 0 0 -.1 0 574)"/></symbol><symbol id="favicon" viewBox="0 0 32 32"><path fill="#2352DE" d="M0 0h32v32H0z"/><path fill-rule="evenodd" clip-rule="evenodd" d="M6.261 4.995c.943-.958 2.313-.997 3.122-.09.521.586.624 1.971.71 9.567l.1 8.88 7.75.19c8.27.202 8.45.248 8.463 2.152.013 1.916-.483 2.016-10.046 2.016-8.186 0-8.949-.057-9.76-.724l-.88-.724-.11-10.246c-.107-9.894-.085-10.272.651-11.02z" fill="#fff"/></symbol></symbol><symbol id="logo" viewBox="0 0 159 53"><path fill-rule="evenodd" clip-rule="evenodd" d="M0 26.151v26.151l22.95.005c12.622.003 48.26.004 79.195.003l56.246-.003.138-26.153L158.667 0H0v26.151zm45.634.27v24.263H1.592V2.157h44.042V26.42zM10.057 11.887c-1.048 1.065-1.08 1.603-.928 15.685l.157 14.582 1.253 1.03c1.154.95 2.241 1.03 13.89 1.03 13.611 0 14.317-.142 14.299-2.869-.02-2.709-.276-2.775-12.044-3.062l-11.03-.27-.143-12.64c-.122-10.81-.269-12.78-1.011-13.614-1.15-1.292-3.1-1.236-4.443.128zm52.234 5.681c.178.47.323 3.866.323 7.549v6.696h6.118c4.973 0 6.177.152 6.427.815.17.449.013 1.177-.347 1.618-.981 1.202-13.89 1.163-15.08-.045-.681-.694-.833-2.29-.833-8.808 0-4.377.16-8.12.354-8.318.676-.687 2.718-.355 3.038.493zm31.248-.11c7.146 3.106 7.146 13.74 0 16.847-2.73 1.188-7.996.943-10.48-.488-3.152-1.813-4.527-4.224-4.527-7.936 0-3.85 1.434-6.245 4.76-7.953 2.76-1.416 7.565-1.637 10.247-.47zm24.75.202c2.472 1.281 3.194 2.552 2.089 3.674-.781.795-1.03.773-3.021-.259-5.172-2.681-11.232-.088-11.232 4.806 0 1.868 1.504 4.24 3.279 5.173 2.425 1.274 7.174.807 8.483-.836 1.761-2.21 1.305-2.658-2.874-2.83-3.708-.153-3.847-.207-3.847-1.507 0-1.322.088-1.35 4.585-1.502 5.362-.181 6.292.359 6.292 3.656 0 4.079-3.862 7.013-9.234 7.013-3.609 0-5.404-.67-7.623-2.845-4.396-4.31-2.901-12.218 2.786-14.736 2.37-1.05 8.13-.942 10.317.193zm23.409.297c2.708 1.455 4.754 4.865 4.754 7.924 0 3.06-2.046 6.47-4.754 7.925-4.641 2.494-11.806 1.164-14.582-2.707-.851-1.186-1.093-2.34-1.093-5.218 0-2.877.242-4.032 1.093-5.217 2.776-3.87 9.941-5.2 14.582-2.707zm-57.164 3.046c-2.086 1.293-2.97 4.005-2.212 6.794 1.462 5.38 10.9 5.39 12.646.013.862-2.653-.079-5.447-2.296-6.821-2.193-1.359-5.932-1.353-8.138.014zm47.591-.171c-2.136 1.54-2.618 2.474-2.636 5.11-.014 1.988.267 2.777 1.393 3.92 1.717 1.746 3.213 2.169 6.378 1.807 3.518-.403 5.213-2.285 5.213-5.788 0-3.826-1.729-5.512-5.947-5.797-2.333-.157-3.394.023-4.401.748z" fill="#fff"/></symbol><symbol id="play" viewBox="0 0 86 100"><path d="M0 0l85.714 50L0 100V0z" fill="#fff"/></symbol><symbol id="arrow-left" viewBox="0 0 35 35"><path fill-rule="evenodd" clip-rule="evenodd" d="M34.83 18.601H5.125l14.27 14.341-1.641 1.65L.68 17.435 17.756.275l1.642 1.65L5.125 16.268H34.83v2.333z" fill="#333"/></symbol><symbol id="arrow-right" viewBox="0 0 35 35"><path fill-rule="evenodd" clip-rule="evenodd" d="M34.15 17.435L17.073 34.594l-1.642-1.65 14.27-14.34H0V16.27h29.705L15.432 1.925l1.641-1.65 17.076 17.16z" fill="#333"/></symbol><symbol id="facebook" viewBox="0 0 44 44"><path d="M38.844 0H5.156A5.162 5.162 0 000 5.156v33.688A5.162 5.162 0 005.156 44h33.688A5.162 5.162 0 0044 38.844V5.156A5.162 5.162 0 0038.844 0zm1.718 38.844a1.72 1.72 0 01-1.718 1.718h-9.797V26.556h5.31l.877-5.328h-6.187V17.53c0-1.458 1.12-2.578 2.578-2.578h3.523V9.625h-3.523c-4.376 0-7.904 3.545-7.904 7.921v3.68h-5.159v5.329h5.159v14.008H5.156a1.72 1.72 0 01-1.718-1.72V5.157a1.72 1.72 0 011.718-1.718h33.688a1.72 1.72 0 011.718 1.718v33.688z" fill="#2352DE"/></symbol><symbol id="instagram" viewBox="0 0 44 44"><path d="M31.219 0H12.78C5.734 0 0 5.734 0 12.781V31.22C0 38.266 5.734 44 12.781 44H31.22C38.266 44 44 38.266 44 31.219V12.78C44 5.734 38.266 0 31.219 0zm9.343 31.219c0 5.152-4.191 9.343-9.343 9.343H12.78c-5.152 0-9.344-4.191-9.344-9.343V12.78c0-5.152 4.192-9.344 9.344-9.344h18.44c5.152 0 9.343 4.192 9.343 9.344v18.44z" fill="#2352DE"/><path d="M22 10.14c-6.54 0-11.86 5.32-11.86 11.86 0 6.54 5.32 11.86 11.86 11.86 6.54 0 11.86-5.32 11.86-11.86 0-6.54-5.32-11.86-11.86-11.86zm0 20.282c-4.644 0-8.422-3.778-8.422-8.422s3.778-8.422 8.422-8.422 8.422 3.778 8.422 8.422-3.778 8.422-8.422 8.422zm12.031-18.734a1.719 1.719 0 100-3.438 1.719 1.719 0 000 3.438z" fill="#2352DE"/></symbol><symbol id="telegram" viewBox="0 0 44 46"><g clip-path="url(#clip0)"><path d="M43.32 4.492c-.537-.675-1.342-1.047-2.266-1.047-.503 0-1.035.109-1.583.323L2.227 18.381C.25 19.156-.016 20.32.001 20.944c.017.625.347 1.77 2.363 2.43l.036.011 7.726 2.272 4.178 12.28c.57 1.674 1.848 2.714 3.337 2.714.94 0 1.863-.405 2.671-1.17l4.779-4.522 6.93 5.736.003.002.066.055.018.014c.77.615 1.612.939 2.433.94 1.606 0 2.883-1.222 3.256-3.111l6.102-30.97c.245-1.243.04-2.356-.578-3.133zM12.71 25.226L27.615 17.4l-9.28 10.135a1.34 1.34 0 00-.313.59l-1.79 7.451-3.522-10.35zm5.855 12.306a2.43 2.43 0 01-.185.159l1.66-6.912 3.02 2.5-4.494 4.253zM41.373 7.1L35.27 38.07c-.059.296-.246.986-.729.986-.238 0-.538-.133-.844-.376l-7.854-6.5a.013.013 0 00-.004-.002l-4.673-3.868 13.421-14.657c.43-.47.47-1.188.093-1.704a1.267 1.267 0 00-1.618-.384l-22.074 11.59-7.83-2.302L40.39 6.244c.315-.124.534-.15.663-.15.078 0 .219.01.27.076.07.086.157.379.049.929z" fill="#2352DE"/></g></symbol><symbol id="safari-pinned-tab" viewBox="0 0 574 574" preserveAspectRatio="xMidYMid meet"><path d="M300 2870V0h5140v5740H300V2870z" transform="matrix(.1 0 0 -.1 0 574)"/></symbol><symbol id="favicon" viewBox="0 0 32 32"><path fill="#2352DE" d="M0 0h32v32H0z"/><path fill-rule="evenodd" clip-rule="evenodd" d="M6.261 4.995c.943-.958 2.313-.997 3.122-.09.521.586.624 1.971.71 9.567l.1 8.88 7.75.19c8.27.202 8.45.248 8.463 2.152.013 1.916-.483 2.016-10.046 2.016-8.186 0-8.949-.057-9.76-.724l-.88-.724-.11-10.246c-.107-9.894-.085-10.272.651-11.02z" fill="#fff"/></symbol></symbol><symbol id="logo" viewBox="0 0 159 53"><path fill-rule="evenodd" clip-rule="evenodd" d="M0 26.151v26.151l22.95.005c12.622.003 48.26.004 79.195.003l56.246-.003.138-26.153L158.667 0H0v26.151zm45.634.27v24.263H1.592V2.157h44.042V26.42zM10.057 11.887c-1.048 1.065-1.08 1.603-.928 15.685l.157 14.582 1.253 1.03c1.154.95 2.241 1.03 13.89 1.03 13.611 0 14.317-.142 14.299-2.869-.02-2.709-.276-2.775-12.044-3.062l-11.03-.27-.143-12.64c-.122-10.81-.269-12.78-1.011-13.614-1.15-1.292-3.1-1.236-4.443.128zm52.234 5.681c.178.47.323 3.866.323 7.549v6.696h6.118c4.973 0 6.177.152 6.427.815.17.449.013 1.177-.347 1.618-.981 1.202-13.89 1.163-15.08-.045-.681-.694-.833-2.29-.833-8.808 0-4.377.16-8.12.354-8.318.676-.687 2.718-.355 3.038.493zm31.248-.11c7.146 3.106 7.146 13.74 0 16.847-2.73 1.188-7.996.943-10.48-.488-3.152-1.813-4.527-4.224-4.527-7.936 0-3.85 1.434-6.245 4.76-7.953 2.76-1.416 7.565-1.637 10.247-.47zm24.75.202c2.472 1.281 3.194 2.552 2.089 3.674-.781.795-1.03.773-3.021-.259-5.172-2.681-11.232-.088-11.232 4.806 0 1.868 1.504 4.24 3.279 5.173 2.425 1.274 7.174.807 8.483-.836 1.761-2.21 1.305-2.658-2.874-2.83-3.708-.153-3.847-.207-3.847-1.507 0-1.322.088-1.35 4.585-1.502 5.362-.181 6.292.359 6.292 3.656 0 4.079-3.862 7.013-9.234 7.013-3.609 0-5.404-.67-7.623-2.845-4.396-4.31-2.901-12.218 2.786-14.736 2.37-1.05 8.13-.942 10.317.193zm23.409.297c2.708 1.455 4.754 4.865 4.754 7.924 0 3.06-2.046 6.47-4.754 7.925-4.641 2.494-11.806 1.164-14.582-2.707-.851-1.186-1.093-2.34-1.093-5.218 0-2.877.242-4.032 1.093-5.217 2.776-3.87 9.941-5.2 14.582-2.707zm-57.164 3.046c-2.086 1.293-2.97 4.005-2.212 6.794 1.462 5.38 10.9 5.39 12.646.013.862-2.653-.079-5.447-2.296-6.821-2.193-1.359-5.932-1.353-8.138.014zm47.591-.171c-2.136 1.54-2.618 2.474-2.636 5.11-.014 1.988.267 2.777 1.393 3.92 1.717 1.746 3.213 2.169 6.378 1.807 3.518-.403 5.213-2.285 5.213-5.788 0-3.826-1.729-5.512-5.947-5.797-2.333-.157-3.394.023-4.401.748z" fill="#fff"/></symbol><symbol id="play" viewBox="0 0 86 100"><path d="M0 0l85.714 50L0 100V0z" fill="#fff"/></symbol><symbol id="arrow-left" viewBox="0 0 35 35"><path fill-rule="evenodd" clip-rule="evenodd" d="M34.83 18.601H5.125l14.27 14.341-1.641 1.65L.68 17.435 17.756.275l1.642 1.65L5.125 16.268H34.83v2.333z" fill="#333"/></symbol><symbol id="arrow-right" viewBox="0 0 35 35"><path fill-rule="evenodd" clip-rule="evenodd" d="M34.15 17.435L17.073 34.594l-1.642-1.65 14.27-14.34H0V16.27h29.705L15.432 1.925l1.641-1.65 17.076 17.16z" fill="#333"/></symbol><symbol id="facebook" viewBox="0 0 44 44"><path d="M38.844 0H5.156A5.162 5.162 0 000 5.156v33.688A5.162 5.162 0 005.156 44h33.688A5.162 5.162 0 0044 38.844V5.156A5.162 5.162 0 0038.844 0zm1.718 38.844a1.72 1.72 0 01-1.718 1.718h-9.797V26.556h5.31l.877-5.328h-6.187V17.53c0-1.458 1.12-2.578 2.578-2.578h3.523V9.625h-3.523c-4.376 0-7.904 3.545-7.904 7.921v3.68h-5.159v5.329h5.159v14.008H5.156a1.72 1.72 0 01-1.718-1.72V5.157a1.72 1.72 0 011.718-1.718h33.688a1.72 1.72 0 011.718 1.718v33.688z" fill="#2352DE"/></symbol><symbol id="instagram" viewBox="0 0 44 44"><path d="M31.219 0H12.78C5.734 0 0 5.734 0 12.781V31.22C0 38.266 5.734 44 12.781 44H31.22C38.266 44 44 38.266 44 31.219V12.78C44 5.734 38.266 0 31.219 0zm9.343 31.219c0 5.152-4.191 9.343-9.343 9.343H12.78c-5.152 0-9.344-4.191-9.344-9.343V12.78c0-5.152 4.192-9.344 9.344-9.344h18.44c5.152 0 9.343 4.192 9.343 9.344v18.44z" fill="#2352DE"/><path d="M22 10.14c-6.54 0-11.86 5.32-11.86 11.86 0 6.54 5.32 11.86 11.86 11.86 6.54 0 11.86-5.32 11.86-11.86 0-6.54-5.32-11.86-11.86-11.86zm0 20.282c-4.644 0-8.422-3.778-8.422-8.422s3.778-8.422 8.422-8.422 8.422 3.778 8.422 8.422-3.778 8.422-8.422 8.422zm12.031-18.734a1.719 1.719 0 100-3.438 1.719 1.719 0 000 3.438z" fill="#2352DE"/></symbol><symbol id="telegram" viewBox="0 0 44 46"><g clip-path="url(#clip0)"><path d="M43.32 4.492c-.537-.675-1.342-1.047-2.266-1.047-.503 0-1.035.109-1.583.323L2.227 18.381C.25 19.156-.016 20.32.001 20.944c.017.625.347 1.77 2.363 2.43l.036.011 7.726 2.272 4.178 12.28c.57 1.674 1.848 2.714 3.337 2.714.94 0 1.863-.405 2.671-1.17l4.779-4.522 6.93 5.736.003.002.066.055.018.014c.77.615 1.612.939 2.433.94 1.606 0 2.883-1.222 3.256-3.111l6.102-30.97c.245-1.243.04-2.356-.578-3.133zM12.71 25.226L27.615 17.4l-9.28 10.135a1.34 1.34 0 00-.313.59l-1.79 7.451-3.522-10.35zm5.855 12.306a2.43 2.43 0 01-.185.159l1.66-6.912 3.02 2.5-4.494 4.253zM41.373 7.1L35.27 38.07c-.059.296-.246.986-.729.986-.238 0-.538-.133-.844-.376l-7.854-6.5a.013.013 0 00-.004-.002l-4.673-3.868 13.421-14.657c.43-.47.47-1.188.093-1.704a1.267 1.267 0 00-1.618-.384l-22.074 11.59-7.83-2.302L40.39 6.244c.315-.124.534-.15.663-.15.078 0 .219.01.27.076.07.086.157.379.049.929z" fill="#2352DE"/></g></symbol><symbol id="safari-pinned-tab" viewBox="0 0 574 574" preserveAspectRatio="xMidYMid meet"><path d="M300 2870V0h5140v5740H300V2870z" transform="matrix(.1 0 0 -.1 0 574)"/></symbol><symbol id="favicon" viewBox="0 0 32 32"><path fill="#2352DE" d="M0 0h32v32H0z"/><path fill-rule="evenodd" clip-rule="evenodd" d="M6.261 4.995c.943-.958 2.313-.997 3.122-.09.521.586.624 1.971.71 9.567l.1 8.88 7.75.19c8.27.202 8.45.248 8.463 2.152.013 1.916-.483 2.016-10.046 2.016-8.186 0-8.949-.057-9.76-.724l-.88-.724-.11-10.246c-.107-9.894-.085-10.272.651-11.02z" fill="#fff"/></symbol></symbol><symbol id="logo" viewBox="0 0 159 53"><path fill-rule="evenodd" clip-rule="evenodd" d="M0 26.151v26.151l22.95.005c12.622.003 48.26.004 79.195.003l56.246-.003.138-26.153L158.667 0H0v26.151zm45.634.27v24.263H1.592V2.157h44.042V26.42zM10.057 11.887c-1.048 1.065-1.08 1.603-.928 15.685l.157 14.582 1.253 1.03c1.154.95 2.241 1.03 13.89 1.03 13.611 0 14.317-.142 14.299-2.869-.02-2.709-.276-2.775-12.044-3.062l-11.03-.27-.143-12.64c-.122-10.81-.269-12.78-1.011-13.614-1.15-1.292-3.1-1.236-4.443.128zm52.234 5.681c.178.47.323 3.866.323 7.549v6.696h6.118c4.973 0 6.177.152 6.427.815.17.449.013 1.177-.347 1.618-.981 1.202-13.89 1.163-15.08-.045-.681-.694-.833-2.29-.833-8.808 0-4.377.16-8.12.354-8.318.676-.687 2.718-.355 3.038.493zm31.248-.11c7.146 3.106 7.146 13.74 0 16.847-2.73 1.188-7.996.943-10.48-.488-3.152-1.813-4.527-4.224-4.527-7.936 0-3.85 1.434-6.245 4.76-7.953 2.76-1.416 7.565-1.637 10.247-.47zm24.75.202c2.472 1.281 3.194 2.552 2.089 3.674-.781.795-1.03.773-3.021-.259-5.172-2.681-11.232-.088-11.232 4.806 0 1.868 1.504 4.24 3.279 5.173 2.425 1.274 7.174.807 8.483-.836 1.761-2.21 1.305-2.658-2.874-2.83-3.708-.153-3.847-.207-3.847-1.507 0-1.322.088-1.35 4.585-1.502 5.362-.181 6.292.359 6.292 3.656 0 4.079-3.862 7.013-9.234 7.013-3.609 0-5.404-.67-7.623-2.845-4.396-4.31-2.901-12.218 2.786-14.736 2.37-1.05 8.13-.942 10.317.193zm23.409.297c2.708 1.455 4.754 4.865 4.754 7.924 0 3.06-2.046 6.47-4.754 7.925-4.641 2.494-11.806 1.164-14.582-2.707-.851-1.186-1.093-2.34-1.093-5.218 0-2.877.242-4.032 1.093-5.217 2.776-3.87 9.941-5.2 14.582-2.707zm-57.164 3.046c-2.086 1.293-2.97 4.005-2.212 6.794 1.462 5.38 10.9 5.39 12.646.013.862-2.653-.079-5.447-2.296-6.821-2.193-1.359-5.932-1.353-8.138.014zm47.591-.171c-2.136 1.54-2.618 2.474-2.636 5.11-.014 1.988.267 2.777 1.393 3.92 1.717 1.746 3.213 2.169 6.378 1.807 3.518-.403 5.213-2.285 5.213-5.788 0-3.826-1.729-5.512-5.947-5.797-2.333-.157-3.394.023-4.401.748z" fill="#fff"/></symbol><symbol id="play" viewBox="0 0 86 100"><path d="M0 0l85.714 50L0 100V0z" fill="#fff"/></symbol><symbol id="arrow-left" viewBox="0 0 35 35"><path fill-rule="evenodd" clip-rule="evenodd" d="M34.83 18.601H5.125l14.27 14.341-1.641 1.65L.68 17.435 17.756.275l1.642 1.65L5.125 16.268H34.83v2.333z" fill="#333"/></symbol><symbol id="arrow-right" viewBox="0 0 35 35"><path fill-rule="evenodd" clip-rule="evenodd" d="M34.15 17.435L17.073 34.594l-1.642-1.65 14.27-14.34H0V16.27h29.705L15.432 1.925l1.641-1.65 17.076 17.16z" fill="#333"/></symbol><symbol id="facebook" viewBox="0 0 44 44"><path d="M38.844 0H5.156A5.162 5.162 0 000 5.156v33.688A5.162 5.162 0 005.156 44h33.688A5.162 5.162 0 0044 38.844V5.156A5.162 5.162 0 0038.844 0zm1.718 38.844a1.72 1.72 0 01-1.718 1.718h-9.797V26.556h5.31l.877-5.328h-6.187V17.53c0-1.458 1.12-2.578 2.578-2.578h3.523V9.625h-3.523c-4.376 0-7.904 3.545-7.904 7.921v3.68h-5.159v5.329h5.159v14.008H5.156a1.72 1.72 0 01-1.718-1.72V5.157a1.72 1.72 0 011.718-1.718h33.688a1.72 1.72 0 011.718 1.718v33.688z" fill="#2352DE"/></symbol><symbol id="instagram" viewBox="0 0 44 44"><path d="M31.219 0H12.78C5.734 0 0 5.734 0 12.781V31.22C0 38.266 5.734 44 12.781 44H31.22C38.266 44 44 38.266 44 31.219V12.78C44 5.734 38.266 0 31.219 0zm9.343 31.219c0 5.152-4.191 9.343-9.343 9.343H12.78c-5.152 0-9.344-4.191-9.344-9.343V12.78c0-5.152 4.192-9.344 9.344-9.344h18.44c5.152 0 9.343 4.192 9.343 9.344v18.44z" fill="#2352DE"/><path d="M22 10.14c-6.54 0-11.86 5.32-11.86 11.86 0 6.54 5.32 11.86 11.86 11.86 6.54 0 11.86-5.32 11.86-11.86 0-6.54-5.32-11.86-11.86-11.86zm0 20.282c-4.644 0-8.422-3.778-8.422-8.422s3.778-8.422 8.422-8.422 8.422 3.778 8.422 8.422-3.778 8.422-8.422 8.422zm12.031-18.734a1.719 1.719 0 100-3.438 1.719 1.719 0 000 3.438z" fill="#2352DE"/></symbol><symbol id="telegram" viewBox="0 0 44 46"><g clip-path="url(#clip0)"><path d="M43.32 4.492c-.537-.675-1.342-1.047-2.266-1.047-.503 0-1.035.109-1.583.323L2.227 18.381C.25 19.156-.016 20.32.001 20.944c.017.625.347 1.77 2.363 2.43l.036.011 7.726 2.272 4.178 12.28c.57 1.674 1.848 2.714 3.337 2.714.94 0 1.863-.405 2.671-1.17l4.779-4.522 6.93 5.736.003.002.066.055.018.014c.77.615 1.612.939 2.433.94 1.606 0 2.883-1.222 3.256-3.111l6.102-30.97c.245-1.243.04-2.356-.578-3.133zM12.71 25.226L27.615 17.4l-9.28 10.135a1.34 1.34 0 00-.313.59l-1.79 7.451-3.522-10.35zm5.855 12.306a2.43 2.43 0 01-.185.159l1.66-6.912 3.02 2.5-4.494 4.253zM41.373 7.1L35.27 38.07c-.059.296-.246.986-.729.986-.238 0-.538-.133-.844-.376l-7.854-6.5a.013.013 0 00-.004-.002l-4.673-3.868 13.421-14.657c.43-.47.47-1.188.093-1.704a1.267 1.267 0 00-1.618-.384l-22.074 11.59-7.83-2.302L40.39 6.244c.315-.124.534-.15.663-.15.078 0 .219.01.27.076.07.086.157.379.049.929z" fill="#2352DE"/></g></symbol><symbol id="safari-pinned-tab" viewBox="0 0 574 574" preserveAspectRatio="xMidYMid meet"><path d="M300 2870V0h5140v5740H300V2870z" transform="matrix(.1 0 0 -.1 0 574)"/></symbol><symbol id="favicon" viewBox="0 0 32 32"><path fill="#2352DE" d="M0 0h32v32H0z"/><path fill-rule="evenodd" clip-rule="evenodd" d="M6.261 4.995c.943-.958 2.313-.997 3.122-.09.521.586.624 1.971.71 9.567l.1 8.88 7.75.19c8.27.202 8.45.248 8.463 2.152.013 1.916-.483 2.016-10.046 2.016-8.186 0-8.949-.057-9.76-.724l-.88-.724-.11-10.246c-.107-9.894-.085-10.272.651-11.02z" fill="#fff"/></symbol></symbol><symbol id="logo" viewBox="0 0 159 53"><path fill-rule="evenodd" clip-rule="evenodd" d="M0 26.151v26.151l22.95.005c12.622.003 48.26.004 79.195.003l56.246-.003.138-26.153L158.667 0H0v26.151zm45.634.27v24.263H1.592V2.157h44.042V26.42zM10.057 11.887c-1.048 1.065-1.08 1.603-.928 15.685l.157 14.582 1.253 1.03c1.154.95 2.241 1.03 13.89 1.03 13.611 0 14.317-.142 14.299-2.869-.02-2.709-.276-2.775-12.044-3.062l-11.03-.27-.143-12.64c-.122-10.81-.269-12.78-1.011-13.614-1.15-1.292-3.1-1.236-4.443.128zm52.234 5.681c.178.47.323 3.866.323 7.549v6.696h6.118c4.973 0 6.177.152 6.427.815.17.449.013 1.177-.347 1.618-.981 1.202-13.89 1.163-15.08-.045-.681-.694-.833-2.29-.833-8.808 0-4.377.16-8.12.354-8.318.676-.687 2.718-.355 3.038.493zm31.248-.11c7.146 3.106 7.146 13.74 0 16.847-2.73 1.188-7.996.943-10.48-.488-3.152-1.813-4.527-4.224-4.527-7.936 0-3.85 1.434-6.245 4.76-7.953 2.76-1.416 7.565-1.637 10.247-.47zm24.75.202c2.472 1.281 3.194 2.552 2.089 3.674-.781.795-1.03.773-3.021-.259-5.172-2.681-11.232-.088-11.232 4.806 0 1.868 1.504 4.24 3.279 5.173 2.425 1.274 7.174.807 8.483-.836 1.761-2.21 1.305-2.658-2.874-2.83-3.708-.153-3.847-.207-3.847-1.507 0-1.322.088-1.35 4.585-1.502 5.362-.181 6.292.359 6.292 3.656 0 4.079-3.862 7.013-9.234 7.013-3.609 0-5.404-.67-7.623-2.845-4.396-4.31-2.901-12.218 2.786-14.736 2.37-1.05 8.13-.942 10.317.193zm23.409.297c2.708 1.455 4.754 4.865 4.754 7.924 0 3.06-2.046 6.47-4.754 7.925-4.641 2.494-11.806 1.164-14.582-2.707-.851-1.186-1.093-2.34-1.093-5.218 0-2.877.242-4.032 1.093-5.217 2.776-3.87 9.941-5.2 14.582-2.707zm-57.164 3.046c-2.086 1.293-2.97 4.005-2.212 6.794 1.462 5.38 10.9 5.39 12.646.013.862-2.653-.079-5.447-2.296-6.821-2.193-1.359-5.932-1.353-8.138.014zm47.591-.171c-2.136 1.54-2.618 2.474-2.636 5.11-.014 1.988.267 2.777 1.393 3.92 1.717 1.746 3.213 2.169 6.378 1.807 3.518-.403 5.213-2.285 5.213-5.788 0-3.826-1.729-5.512-5.947-5.797-2.333-.157-3.394.023-4.401.748z" fill="#fff"/></symbol><symbol id="play" viewBox="0 0 86 100"><path d="M0 0l85.714 50L0 100V0z" fill="#fff"/></symbol><symbol id="arrow-left" viewBox="0 0 35 35"><path fill-rule="evenodd" clip-rule="evenodd" d="M34.83 18.601H5.125l14.27 14.341-1.641 1.65L.68 17.435 17.756.275l1.642 1.65L5.125 16.268H34.83v2.333z" fill="#333"/></symbol><symbol id="arrow-right" viewBox="0 0 35 35"><path fill-rule="evenodd" clip-rule="evenodd" d="M34.15 17.435L17.073 34.594l-1.642-1.65 14.27-14.34H0V16.27h29.705L15.432 1.925l1.641-1.65 17.076 17.16z" fill="#333"/></symbol><symbol id="facebook" viewBox="0 0 44 44"><path d="M38.844 0H5.156A5.162 5.162 0 000 5.156v33.688A5.162 5.162 0 005.156 44h33.688A5.162 5.162 0 0044 38.844V5.156A5.162 5.162 0 0038.844 0zm1.718 38.844a1.72 1.72 0 01-1.718 1.718h-9.797V26.556h5.31l.877-5.328h-6.187V17.53c0-1.458 1.12-2.578 2.578-2.578h3.523V9.625h-3.523c-4.376 0-7.904 3.545-7.904 7.921v3.68h-5.159v5.329h5.159v14.008H5.156a1.72 1.72 0 01-1.718-1.72V5.157a1.72 1.72 0 011.718-1.718h33.688a1.72 1.72 0 011.718 1.718v33.688z" fill="#2352DE"/></symbol><symbol id="instagram" viewBox="0 0 44 44"><path d="M31.219 0H12.78C5.734 0 0 5.734 0 12.781V31.22C0 38.266 5.734 44 12.781 44H31.22C38.266 44 44 38.266 44 31.219V12.78C44 5.734 38.266 0 31.219 0zm9.343 31.219c0 5.152-4.191 9.343-9.343 9.343H12.78c-5.152 0-9.344-4.191-9.344-9.343V12.78c0-5.152 4.192-9.344 9.344-9.344h18.44c5.152 0 9.343 4.192 9.343 9.344v18.44z" fill="#2352DE"/><path d="M22 10.14c-6.54 0-11.86 5.32-11.86 11.86 0 6.54 5.32 11.86 11.86 11.86 6.54 0 11.86-5.32 11.86-11.86 0-6.54-5.32-11.86-11.86-11.86zm0 20.282c-4.644 0-8.422-3.778-8.422-8.422s3.778-8.422 8.422-8.422 8.422 3.778 8.422 8.422-3.778 8.422-8.422 8.422zm12.031-18.734a1.719 1.719 0 100-3.438 1.719 1.719 0 000 3.438z" fill="#2352DE"/></symbol><symbol id="telegram" viewBox="0 0 44 46"><g clip-path="url(#clip0)"><path d="M43.32 4.492c-.537-.675-1.342-1.047-2.266-1.047-.503 0-1.035.109-1.583.323L2.227 18.381C.25 19.156-.016 20.32.001 20.944c.017.625.347 1.77 2.363 2.43l.036.011 7.726 2.272 4.178 12.28c.57 1.674 1.848 2.714 3.337 2.714.94 0 1.863-.405 2.671-1.17l4.779-4.522 6.93 5.736.003.002.066.055.018.014c.77.615 1.612.939 2.433.94 1.606 0 2.883-1.222 3.256-3.111l6.102-30.97c.245-1.243.04-2.356-.578-3.133zM12.71 25.226L27.615 17.4l-9.28 10.135a1.34 1.34 0 00-.313.59l-1.79 7.451-3.522-10.35zm5.855 12.306a2.43 2.43 0 01-.185.159l1.66-6.912 3.02 2.5-4.494 4.253zM41.373 7.1L35.27 38.07c-.059.296-.246.986-.729.986-.238 0-.538-.133-.844-.376l-7.854-6.5a.013.013 0 00-.004-.002l-4.673-3.868 13.421-14.657c.43-.47.47-1.188.093-1.704a1.267 1.267 0 00-1.618-.384l-22.074 11.59-7.83-2.302L40.39 6.244c.315-.124.534-.15.663-.15.078 0 .219.01.27.076.07.086.157.379.049.929z" fill="#2352DE"/></g></symbol><symbol id="safari-pinned-tab" viewBox="0 0 574 574" preserveAspectRatio="xMidYMid meet"><path d="M300 2870V0h5140v5740H300V2870z" transform="matrix(.1 0 0 -.1 0 574)"/></symbol><symbol id="favicon" viewBox="0 0 32 32"><path fill="#2352DE" d="M0 0h32v32H0z"/><path fill-rule="evenodd" clip-rule="evenodd" d="M6.261 4.995c.943-.958 2.313-.997 3.122-.09.521.586.624 1.971.71 9.567l.1 8.88 7.75.19c8.27.202 8.45.248 8.463 2.152.013 1.916-.483 2.016-10.046 2.016-8.186 0-8.949-.057-9.76-.724l-.88-.724-.11-10.246c-.107-9.894-.085-10.272.651-11.02z" fill="#fff"/></symbol></symbol><symbol id="logo" viewBox="0 0 159 53"><path fill-rule="evenodd" clip-rule="evenodd" d="M0 26.151v26.151l22.95.005c12.622.003 48.26.004 79.195.003l56.246-.003.138-26.153L158.667 0H0v26.151zm45.634.27v24.263H1.592V2.157h44.042V26.42zM10.057 11.887c-1.048 1.065-1.08 1.603-.928 15.685l.157 14.582 1.253 1.03c1.154.95 2.241 1.03 13.89 1.03 13.611 0 14.317-.142 14.299-2.869-.02-2.709-.276-2.775-12.044-3.062l-11.03-.27-.143-12.64c-.122-10.81-.269-12.78-1.011-13.614-1.15-1.292-3.1-1.236-4.443.128zm52.234 5.681c.178.47.323 3.866.323 7.549v6.696h6.118c4.973 0 6.177.152 6.427.815.17.449.013 1.177-.347 1.618-.981 1.202-13.89 1.163-15.08-.045-.681-.694-.833-2.29-.833-8.808 0-4.377.16-8.12.354-8.318.676-.687 2.718-.355 3.038.493zm31.248-.11c7.146 3.106 7.146 13.74 0 16.847-2.73 1.188-7.996.943-10.48-.488-3.152-1.813-4.527-4.224-4.527-7.936 0-3.85 1.434-6.245 4.76-7.953 2.76-1.416 7.565-1.637 10.247-.47zm24.75.202c2.472 1.281 3.194 2.552 2.089 3.674-.781.795-1.03.773-3.021-.259-5.172-2.681-11.232-.088-11.232 4.806 0 1.868 1.504 4.24 3.279 5.173 2.425 1.274 7.174.807 8.483-.836 1.761-2.21 1.305-2.658-2.874-2.83-3.708-.153-3.847-.207-3.847-1.507 0-1.322.088-1.35 4.585-1.502 5.362-.181 6.292.359 6.292 3.656 0 4.079-3.862 7.013-9.234 7.013-3.609 0-5.404-.67-7.623-2.845-4.396-4.31-2.901-12.218 2.786-14.736 2.37-1.05 8.13-.942 10.317.193zm23.409.297c2.708 1.455 4.754 4.865 4.754 7.924 0 3.06-2.046 6.47-4.754 7.925-4.641 2.494-11.806 1.164-14.582-2.707-.851-1.186-1.093-2.34-1.093-5.218 0-2.877.242-4.032 1.093-5.217 2.776-3.87 9.941-5.2 14.582-2.707zm-57.164 3.046c-2.086 1.293-2.97 4.005-2.212 6.794 1.462 5.38 10.9 5.39 12.646.013.862-2.653-.079-5.447-2.296-6.821-2.193-1.359-5.932-1.353-8.138.014zm47.591-.171c-2.136 1.54-2.618 2.474-2.636 5.11-.014 1.988.267 2.777 1.393 3.92 1.717 1.746 3.213 2.169 6.378 1.807 3.518-.403 5.213-2.285 5.213-5.788 0-3.826-1.729-5.512-5.947-5.797-2.333-.157-3.394.023-4.401.748z" fill="#fff"/></symbol><symbol id="play" viewBox="0 0 86 100"><path d="M0 0l85.714 50L0 100V0z" fill="#fff"/></symbol><symbol id="arrow-left" viewBox="0 0 35 35"><path fill-rule="evenodd" clip-rule="evenodd" d="M34.83 18.601H5.125l14.27 14.341-1.641 1.65L.68 17.435 17.756.275l1.642 1.65L5.125 16.268H34.83v2.333z" fill="#333"/></symbol><symbol id="arrow-right" viewBox="0 0 35 35"><path fill-rule="evenodd" clip-rule="evenodd" d="M34.15 17.435L17.073 34.594l-1.642-1.65 14.27-14.34H0V16.27h29.705L15.432 1.925l1.641-1.65 17.076 17.16z" fill="#333"/></symbol><symbol id="facebook" viewBox="0 0 44 44"><path d="M38.844 0H5.156A5.162 5.162 0 000 5.156v33.688A5.162 5.162 0 005.156 44h33.688A5.162 5.162 0 0044 38.844V5.156A5.162 5.162 0 0038.844 0zm1.718 38.844a1.72 1.72 0 01-1.718 1.718h-9.797V26.556h5.31l.877-5.328h-6.187V17.53c0-1.458 1.12-2.578 2.578-2.578h3.523V9.625h-3.523c-4.376 0-7.904 3.545-7.904 7.921v3.68h-5.159v5.329h5.159v14.008H5.156a1.72 1.72 0 01-1.718-1.72V5.157a1.72 1.72 0 011.718-1.718h33.688a1.72 1.72 0 011.718 1.718v33.688z" fill="#2352DE"/></symbol><symbol id="instagram" viewBox="0 0 44 44"><path d="M31.219 0H12.78C5.734 0 0 5.734 0 12.781V31.22C0 38.266 5.734 44 12.781 44H31.22C38.266 44 44 38.266 44 31.219V12.78C44 5.734 38.266 0 31.219 0zm9.343 31.219c0 5.152-4.191 9.343-9.343 9.343H12.78c-5.152 0-9.344-4.191-9.344-9.343V12.78c0-5.152 4.192-9.344 9.344-9.344h18.44c5.152 0 9.343 4.192 9.343 9.344v18.44z" fill="#2352DE"/><path d="M22 10.14c-6.54 0-11.86 5.32-11.86 11.86 0 6.54 5.32 11.86 11.86 11.86 6.54 0 11.86-5.32 11.86-11.86 0-6.54-5.32-11.86-11.86-11.86zm0 20.282c-4.644 0-8.422-3.778-8.422-8.422s3.778-8.422 8.422-8.422 8.422 3.778 8.422 8.422-3.778 8.422-8.422 8.422zm12.031-18.734a1.719 1.719 0 100-3.438 1.719 1.719 0 000 3.438z" fill="#2352DE"/></symbol><symbol id="telegram" viewBox="0 0 44 46"><g clip-path="url(#clip0)"><path d="M43.32 4.492c-.537-.675-1.342-1.047-2.266-1.047-.503 0-1.035.109-1.583.323L2.227 18.381C.25 19.156-.016 20.32.001 20.944c.017.625.347 1.77 2.363 2.43l.036.011 7.726 2.272 4.178 12.28c.57 1.674 1.848 2.714 3.337 2.714.94 0 1.863-.405 2.671-1.17l4.779-4.522 6.93 5.736.003.002.066.055.018.014c.77.615 1.612.939 2.433.94 1.606 0 2.883-1.222 3.256-3.111l6.102-30.97c.245-1.243.04-2.356-.578-3.133zM12.71 25.226L27.615 17.4l-9.28 10.135a1.34 1.34 0 00-.313.59l-1.79 7.451-3.522-10.35zm5.855 12.306a2.43 2.43 0 01-.185.159l1.66-6.912 3.02 2.5-4.494 4.253zM41.373 7.1L35.27 38.07c-.059.296-.246.986-.729.986-.238 0-.538-.133-.844-.376l-7.854-6.5a.013.013 0 00-.004-.002l-4.673-3.868 13.421-14.657c.43-.47.47-1.188.093-1.704a1.267 1.267 0 00-1.618-.384l-22.074 11.59-7.83-2.302L40.39 6.244c.315-.124.534-.15.663-.15.078 0 .219.01.27.076.07.086.157.379.049.929z" fill="#2352DE"/></g></symbol><symbol id="safari-pinned-tab" viewBox="0 0 574 574" preserveAspectRatio="xMidYMid meet"><path d="M300 2870V0h5140v5740H300V2870z" transform="matrix(.1 0 0 -.1 0 574)"/></symbol><symbol id="favicon" viewBox="0 0 32 32"><path fill="#2352DE" d="M0 0h32v32H0z"/><path fill-rule="evenodd" clip-rule="evenodd" d="M6.261 4.995c.943-.958 2.313-.997 3.122-.09.521.586.624 1.971.71 9.567l.1 8.88 7.75.19c8.27.202 8.45.248 8.463 2.152.013 1.916-.483 2.016-10.046 2.016-8.186 0-8.949-.057-9.76-.724l-.88-.724-.11-10.246c-.107-9.894-.085-10.272.651-11.02z" fill="#fff"/></symbol></svg>