<?xml version="1.0" encoding="UTF-8"?><!DOCTYPE svg PUBLIC "-//W3C//DTD SVG 1.1//EN" "http://www.w3.org/Graphics/SVG/1.1/DTD/svg11.dtd"><svg xmlns="http://www.w3.org/2000/svg" xmlns:xlink="http://www.w3.org/1999/xlink"><defs>
<clipPath id="clip0">
<rect width="44" height="45.2222" fill="white"/>
</clipPath>
</defs><symbol id="arrow-down" viewBox="0 0 37 23">
<path d="M18.5 22.0455C17.8368 22.0455 17.1738 21.7923 16.6682 21.287L0.759084 5.37767C-0.252947 4.36564 -0.252947 2.7248 0.759084 1.71318C1.77071 0.701562 3.41121 0.701562 4.42332 1.71318L18.5 15.7906L32.5767 1.71368C33.5887 0.702054 35.229 0.702054 36.2406 1.71368C37.2531 2.7253 37.2531 4.36613 36.2406 5.37816L20.3317 21.2875C19.8259 21.7929 19.1628 22.0455 18.5 22.0455Z" fill="white"/>
</symbol><symbol id="button-burger" viewBox="0 0 30 22">
<line y1="1" x2="30" y2="1" stroke="white" stroke-width="2"/>
<line y1="11" x2="30" y2="11" stroke="white" stroke-width="2"/>
<line y1="21" x2="30" y2="21" stroke="white" stroke-width="2"/>
</symbol><symbol id="chat-icon" viewBox="0 0 60 60">
<path d="M35.625 11.25H13.125C12.09 11.25 11.25 12.09 11.25 13.125C11.25 14.16 12.09 15 13.125 15H35.625C36.66 15 37.5 14.16 37.5 13.125C37.5 12.09 36.66 11.25 35.625 11.25Z" fill="#2352DE"/>
<path d="M28.125 18.75H13.125C12.09 18.75 11.25 19.59 11.25 20.625C11.25 21.66 12.09 22.5 13.125 22.5H28.125C29.16 22.5 30 21.66 30 20.625C30 19.59 29.16 18.75 28.125 18.75Z" fill="#2352DE"/>
<path d="M41.25 0H7.5C3.36375 0 0 3.36375 0 7.5V45C0 45.7275 0.42 46.3913 1.08 46.6987C1.33125 46.815 1.605 46.875 1.875 46.875C2.30625 46.875 2.73375 46.725 3.075 46.44L13.8038 37.5H41.25C45.3862 37.5 48.75 34.1362 48.75 30V7.5C48.75 3.36375 45.3862 0 41.25 0ZM45 30C45 32.0662 43.32 33.75 41.25 33.75H13.125C12.6862 33.75 12.2625 33.9038 11.925 34.185L3.75 40.9987V7.5C3.75 5.43375 5.43 3.75 7.5 3.75H41.25C43.32 3.75 45 5.43375 45 7.5V30Z" fill="#2352DE"/>
<path d="M52.5 15C51.465 15 50.625 15.84 50.625 16.875C50.625 17.91 51.465 18.75 52.5 18.75C54.57 18.75 56.25 20.4338 56.25 22.5V54.2212L49.92 49.1588C49.59 48.8963 49.1738 48.75 48.75 48.75H22.5C20.43 48.75 18.75 47.0662 18.75 45V43.125C18.75 42.09 17.91 41.25 16.875 41.25C15.84 41.25 15 42.09 15 43.125V45C15 49.1362 18.3637 52.5 22.5 52.5H48.09L56.9513 59.5912C57.2925 59.8612 57.7088 60 58.125 60C58.3988 60 58.6763 59.94 58.9388 59.8162C59.5875 59.5013 60 58.845 60 58.125V22.5C60 18.3637 56.6362 15 52.5 15Z" fill="#2352DE"/>
</symbol><symbol id="code-icon" viewBox="0 0 60 60">
<path d="M37.2461 0.80931L35.2578 0.066386C35.0019 -0.049935 34.7498 -0.0133545 34.5047 0.17582C34.2587 0.365148 34.0927 0.649369 34.0073 1.02802L22.0487 57.4419C21.9634 57.8207 21.9901 58.1779 22.129 58.5125C22.2679 58.8477 22.476 59.0734 22.7543 59.1898L24.742 59.933C24.9985 60.0502 25.2497 60.0135 25.4955 59.824C25.7414 59.6338 25.9071 59.3505 25.9924 58.9724L37.9513 2.55765C38.0365 2.17899 38.01 1.82176 37.8709 1.48642C37.7319 1.15123 37.524 0.925478 37.2461 0.80931Z" fill="#2352DE"/>
<path d="M19 10.743C19 10.3523 18.891 10.0062 18.6734 9.70586L17.041 7.45121C16.8234 7.15067 16.573 7 16.2901 7C16.0072 7 15.7567 7.15083 15.5392 7.45121L0.326563 28.4632C0.108626 28.7637 0 29.1096 0 29.5003C0 29.891 0.108969 30.2369 0.326563 30.5373L15.5391 51.5493C15.7566 51.8503 16.0066 52 16.29 52C16.5733 52 16.8234 51.8498 17.0408 51.5493L18.6733 49.2959C18.8909 48.9955 18.9999 48.6495 18.9999 48.2583C18.9999 47.868 18.8909 47.5221 18.6733 47.2218L5.84372 29.5003L18.6734 11.7801C18.8914 11.4798 19 11.1337 19 10.743Z" fill="#2352DE"/>
<path d="M59.6736 28.4629L44.4597 7.45121C44.2422 7.15082 43.9916 7 43.7092 7C43.4258 7 43.1762 7.15082 42.9579 7.45121L41.326 9.70567C41.1085 10.0062 41 10.3516 41 10.7428C41 11.134 41.1084 11.4795 41.326 11.7799L54.1568 29.5004L41.326 47.2218C41.1085 47.5222 41 47.8682 41 48.2583C41 48.6497 41.1084 48.9955 41.326 49.2959L42.9579 51.5493C43.1762 51.8503 43.4259 52 43.7092 52C43.9917 52 44.2422 51.8498 44.4597 51.5493L59.6736 30.5377C59.8913 30.2373 60 29.8908 60 29.5001C60 29.1092 59.8913 28.7633 59.6736 28.4629Z" fill="#2352DE"/>
</symbol><symbol id="cross" viewBox="0 0 25 24">
<line x1="2.10042" y1="1.68614" x2="23.3136" y2="22.8993" stroke="white" stroke-width="2"/>
<line x1="1.6862" y1="22.8993" x2="22.8994" y2="1.68614" stroke="white" stroke-width="2"/>
</symbol><symbol id="dev-icon" viewBox="0 0 60 60">
<path d="M31.8827 60H28.1171C25.0716 60 22.5936 57.5222 22.5936 54.4766V53.2027C21.2988 52.789 20.0408 52.2668 18.8323 51.6414L17.9295 52.5442C15.7429 54.7335 12.2402 54.6693 10.1171 52.5434L7.4557 49.882C5.32887 47.7575 5.26769 44.2561 7.45641 42.0697L8.35851 41.1676C7.73309 39.9591 7.21102 38.7013 6.79723 37.4062H5.5234C2.47793 37.4062 0 34.9284 0 31.8829V28.1171C0 25.0716 2.47793 22.5938 5.52352 22.5938H6.79734C7.21113 21.2988 7.7332 20.0409 8.35863 18.8324L7.45582 17.9297C5.2684 15.7446 5.32875 12.2428 7.45652 10.1174L10.1182 7.45582C12.2462 5.32488 15.748 5.27168 17.9304 7.45652L18.8324 8.35851C20.0409 7.7332 21.2989 7.21102 22.5938 6.79723V5.5234C22.5938 2.47781 25.0716 0 28.1173 0H31.8829C34.9284 0 37.4062 2.47781 37.4062 5.5234V6.79734C38.7011 7.21102 39.9591 7.7332 41.1676 8.35863L42.0704 7.45582C44.257 5.26652 47.7596 5.33074 49.8827 7.45664L52.5442 10.118C54.671 12.2425 54.7322 15.7439 52.5435 17.9303L51.6414 18.8324C52.2668 20.0409 52.7889 21.2987 53.2027 22.5938H54.4765C57.5221 22.5938 60 25.0716 60 28.1171V31.8829C60 34.9284 57.5221 37.4062 54.4765 37.4062H53.2027C52.7889 38.7012 52.2668 39.9591 51.6414 41.1676L52.5442 42.0704C54.7316 44.2555 54.6712 47.7573 52.5435 49.8827L49.8818 52.5443C47.7538 54.6752 44.252 54.7284 42.0696 52.5436L41.1676 51.6416C39.9591 52.2669 38.7011 52.7891 37.4062 53.2029V54.4768C37.4062 57.5222 34.9284 60 31.8827 60ZM19.42 47.9496C21.0989 48.9425 22.9059 49.6927 24.7908 50.1791C25.567 50.3794 26.1094 51.0795 26.1094 51.8811V54.4766C26.1094 55.5837 27.0102 56.4844 28.1173 56.4844H31.8829C32.9899 56.4844 33.8907 55.5837 33.8907 54.4766V51.8811C33.8907 51.0795 34.4331 50.3794 35.2093 50.1791C37.0942 49.6927 38.9012 48.9425 40.5802 47.9496C41.271 47.5411 42.1505 47.6522 42.718 48.2197L44.5564 50.0583C45.3491 50.8519 46.622 50.8335 47.3952 50.0591L50.0585 47.3959C50.8298 46.6255 50.8556 45.3524 50.0592 44.557L48.22 42.7178C47.6525 42.1504 47.5414 41.2707 47.9498 40.58C48.9428 38.9012 49.6928 37.0942 50.1792 35.2092C50.3796 34.433 51.0797 33.8907 51.8812 33.8907H54.4766C55.5837 33.8907 56.4845 32.99 56.4845 31.883V28.1173C56.4845 27.0102 55.5837 26.1095 54.4766 26.1095H51.8812C51.0796 26.1095 50.3796 25.5671 50.1792 24.791C49.6928 22.9061 48.9427 21.099 47.9498 19.4202C47.5414 18.7295 47.6525 17.8499 48.22 17.2825L50.0585 15.4439C50.8533 14.6501 50.8325 13.3774 50.0592 12.605L47.3961 9.94195C46.6242 9.16898 45.3511 9.14637 44.5573 9.94125L42.7181 11.7805C42.1507 12.348 41.2709 12.4591 40.5803 12.0506C38.9013 11.0577 37.0943 10.3076 35.2095 9.82113C34.4332 9.62086 33.8909 8.92078 33.8909 8.1191V5.5234C33.8909 4.41633 32.99 3.51562 31.883 3.51562H28.1174C27.0103 3.51562 26.1095 4.41633 26.1095 5.5234V8.11887C26.1095 8.92055 25.5671 9.62063 24.7909 9.8209C22.9061 10.3073 21.099 11.0575 19.4201 12.0504C18.7291 12.4588 17.8496 12.3477 17.2822 11.7803L15.4438 9.94172C14.6511 9.14812 13.3781 9.16652 12.605 9.9409L9.94172 12.6041C9.17039 13.3745 9.14461 14.6475 9.94102 15.443L11.7803 17.2822C12.3477 17.8496 12.4588 18.7293 12.0504 19.42C11.0575 21.0988 10.3075 22.9058 9.82102 24.7908C9.62062 25.567 8.92055 26.1093 8.11898 26.1093H5.52352C4.41645 26.1094 3.51562 27.0101 3.51562 28.1171V31.8829C3.51562 32.9899 4.41645 33.8906 5.52352 33.8906H8.11887C8.92055 33.8906 9.62051 34.433 9.8209 35.2091C10.3073 37.0941 11.0575 38.9011 12.0503 40.5799C12.4587 41.2706 12.3476 42.1502 11.7802 42.7177L9.9416 44.5562C9.14684 45.35 9.16758 46.6227 9.9409 47.3951L12.604 50.0582C13.3759 50.8311 14.649 50.8538 15.4429 50.0589L17.282 48.2196C17.7001 47.8016 18.57 47.4469 19.42 47.9496Z" fill="#2352DE"/>
<path d="M30 43.0547C22.8016 43.0547 16.9453 37.1984 16.9453 30C16.9453 22.8016 22.8016 16.9453 30 16.9453C37.1985 16.9453 43.0547 22.8016 43.0547 30C43.0547 37.1984 37.1985 43.0547 30 43.0547ZM30 20.4609C24.7401 20.4609 20.461 24.7402 20.461 30C20.461 35.2598 24.7402 39.5391 30 39.5391C35.2599 39.5391 39.5391 35.2598 39.5391 30C39.5391 24.7402 35.26 20.4609 30 20.4609Z" fill="#2352DE"/>
</symbol><symbol id="good-icon" viewBox="0 0 1171.000000 1280.000000" preserveAspectRatio="xMidYMid meet">
<metadata>
Created by potrace 1.15, written by Peter Selinger 2001-2017
</metadata>
<g transform="translate(0.000000,1280.000000) scale(0.100000,-0.100000)" fill="#2352DE" stroke="none">
<path d="M11555 12694 c-1288 -888 -2591 -2076 -3945 -3594 -1475 -1656 -3026
-3783 -4315 -5918 -72 -119 -115 -180 -123 -177 -8 3 -716 474 -1575 1048
-859 574 -1568 1047 -1576 1052 -11 6 -10 2 2 -16 98 -140 3704 -5078 3709
-5079 3 0 34 66 68 148 1225 2918 2422 5234 3838 7427 1148 1777 2481 3497
3899 5028 91 97 163 177 161 177 -2 0 -67 -43 -143 -96z"/>
</g>
</symbol><symbol id="logo" viewBox="0 0 159 53">
<path fill-rule="evenodd" clip-rule="evenodd" d="M0 26.151V52.302L22.9495 52.3069C35.572 52.3096 71.2097 52.3107 102.145 52.3096L158.391 52.3074L158.529 26.1537L158.667 0H79.3336H0V26.151ZM45.6337 26.4206V50.6844H23.6128H1.59187V26.4206V2.15678H23.6128H45.6337V26.4206ZM10.0574 11.8871C9.00946 12.952 8.97762 13.4896 9.12885 27.5718L9.28592 42.1538L10.5387 43.1842C11.6934 44.1337 12.7801 44.2141 24.4294 44.2141C38.0404 44.2141 38.7462 44.0723 38.7276 41.345C38.7085 38.6361 38.4517 38.5703 26.684 38.2829L15.6534 38.0133L15.5107 25.3735C15.3886 14.5631 15.2422 12.5924 14.4998 11.7588C13.3494 10.4669 11.3999 10.523 10.0574 11.8871ZM62.2915 17.5681C62.4688 18.0372 62.6136 21.4341 62.6136 25.1168V31.8126H68.7322C73.7047 31.8126 74.9092 31.9652 75.1592 32.6284C75.329 33.077 75.1724 33.8049 74.8121 34.246C73.8305 35.4478 60.9225 35.409 59.7329 34.2007C59.0505 33.5067 58.8992 31.9107 58.8992 25.3934C58.8992 21.0157 59.0584 17.2721 59.2532 17.0747C59.9287 16.3883 61.971 16.7199 62.2915 17.5681ZM93.5394 17.4576C100.685 20.5644 100.685 31.1984 93.5394 34.3053C90.8083 35.4926 85.5435 35.2478 83.0585 33.8173C79.9072 32.004 78.5323 29.5932 78.5323 25.8814C78.5323 22.031 79.9661 19.6359 83.292 17.9283C86.0513 16.5118 90.8566 16.2907 93.5394 17.4576ZM118.289 17.6598C120.761 18.9414 121.483 20.2118 120.378 21.3344C119.597 22.1286 119.348 22.107 117.357 21.075C112.185 18.3936 106.125 20.9871 106.125 25.8814C106.125 27.7492 107.629 30.1211 109.404 31.0539C111.829 32.328 116.578 31.8606 117.887 30.2182C119.648 28.0085 119.192 27.5599 115.013 27.3879C111.305 27.2353 111.166 27.1809 111.166 25.8814C111.166 24.5593 111.254 24.5302 115.751 24.3787C121.113 24.1975 122.043 24.7378 122.043 28.0355C122.043 32.114 118.181 35.0477 112.809 35.0477C109.2 35.0477 107.405 34.3775 105.186 32.2029C100.79 27.8937 102.285 19.9848 107.972 17.4667C110.342 16.4169 116.102 16.5247 118.289 17.6598ZM141.698 17.9569C144.406 19.4121 146.452 22.822 146.452 25.8814C146.452 28.9408 144.406 32.3507 141.698 33.806C137.057 36.2998 129.892 34.9696 127.116 31.0992C126.265 29.9135 126.023 28.7591 126.023 25.8814C126.023 23.0037 126.265 21.8493 127.116 20.6636C129.892 16.7933 137.057 15.4631 141.698 17.9569ZM84.5342 21.0028C82.4478 22.2958 81.5643 25.0079 82.322 27.7966C83.7839 33.1767 93.2221 33.187 94.9679 27.8101C95.8296 25.1573 94.8893 22.3632 92.6719 20.9887C90.4788 19.63 86.7395 19.6364 84.5342 21.0028ZM132.125 20.8318C129.989 22.3718 129.507 23.3057 129.489 25.9429C129.475 27.9298 129.756 28.7187 130.882 29.8628C132.599 31.6077 134.095 32.0309 137.26 31.6686C140.778 31.2658 142.473 29.384 142.473 25.8814C142.473 22.0547 140.744 20.3692 136.526 20.084C134.193 19.9265 133.132 20.1066 132.125 20.8318Z" fill="white"/>
</symbol><symbol id="play" viewBox="0 0 86 100">
<path d="M0 0L85.7143 50L0 100V0Z" fill="white"/>
</symbol><symbol id="arrow-left" viewBox="0 0 35 35">
<path fill-rule="evenodd" clip-rule="evenodd" d="M34.8297 18.6013H5.12463L19.3955 32.942L17.7539 34.5917L0.680359 17.4347L17.7562 0.27533L19.3979 1.925L5.12463 16.268H34.8297V18.6013Z" fill="#333333"/>
</symbol><symbol id="arrow-right" viewBox="0 0 35 35">
<path fill-rule="evenodd" clip-rule="evenodd" d="M34.1494 17.4347L17.0735 34.594L15.4319 32.9443L29.7028 18.6037H0V16.2703H29.7051L15.4319 1.925L17.0735 0.27533L34.1494 17.4347Z" fill="#333333"/>
</symbol><symbol id="facebook" viewBox="0 0 44 44">
<path d="M38.8438 0H5.15625C2.31309 0 0 2.31309 0 5.15625V38.8438C0 41.6869 2.31309 44 5.15625 44H38.8438C41.6869 44 44 41.6869 44 38.8438V5.15625C44 2.31309 41.6869 0 38.8438 0ZM40.5625 38.8438C40.5625 39.7915 39.7915 40.5625 38.8438 40.5625H29.0469V26.5547H34.357L35.2344 21.2266H29.0469V17.5312C29.0469 16.0725 30.1662 14.9531 31.625 14.9531H35.1484V9.625H31.625C27.2488 9.625 23.7206 13.1699 23.7206 17.5462V21.2266H18.5625V26.5547H23.7206V40.5625H5.15625C4.20853 40.5625 3.4375 39.7915 3.4375 38.8438V5.15625C3.4375 4.20853 4.20853 3.4375 5.15625 3.4375H38.8438C39.7915 3.4375 40.5625 4.20853 40.5625 5.15625V38.8438Z" fill="#2352DE"/>
</symbol><symbol id="instagram" viewBox="0 0 44 44">
<path d="M31.2188 0H12.7813C5.73366 0 0 5.73366 0 12.7813V31.2187C0 38.2663 5.73366 44 12.7813 44H31.2187C38.2663 44 44 38.2663 44 31.2188V12.7813C44 5.73366 38.2663 0 31.2188 0ZM40.5625 31.2187C40.5625 36.3709 36.3709 40.5625 31.2188 40.5625H12.7813C7.6291 40.5625 3.4375 36.3709 3.4375 31.2188V12.7813C3.4375 7.6291 7.6291 3.4375 12.7813 3.4375H31.2187C36.3709 3.4375 40.5625 7.6291 40.5625 12.7813V31.2187Z" fill="#2352DE"/>
<path d="M22 10.1406C15.4607 10.1406 10.1406 15.4607 10.1406 22C10.1406 28.5393 15.4607 33.8594 22 33.8594C28.5393 33.8594 33.8594 28.5393 33.8594 22C33.8594 15.4607 28.5393 10.1406 22 10.1406ZM22 30.4219C17.3562 30.4219 13.5781 26.6438 13.5781 22C13.5781 17.3562 17.3562 13.5781 22 13.5781C26.6438 13.5781 30.4219 17.3562 30.4219 22C30.4219 26.6438 26.6438 30.4219 22 30.4219Z" fill="#2352DE"/>
<path d="M34.0312 11.6875C34.9805 11.6875 35.75 10.918 35.75 9.96875C35.75 9.01951 34.9805 8.25 34.0312 8.25C33.082 8.25 32.3125 9.01951 32.3125 9.96875C32.3125 10.918 33.082 11.6875 34.0312 11.6875Z" fill="#2352DE"/>
</symbol><symbol id="telegram" viewBox="0 0 44 46">
<g clip-path="url(#clip0)">
<path d="M43.3206 4.4923C42.7831 3.81675 41.9781 3.44482 41.0536 3.44482C40.5511 3.44482 40.0187 3.5535 39.4715 3.76845L2.22633 18.381C0.249764 19.1563 -0.0164409 20.3197 0.000679409 20.9441C0.0177997 21.5686 0.347786 22.7148 2.36396 23.3741C2.37605 23.3779 2.38813 23.3817 2.40022 23.3851L10.1259 25.6574L14.3039 37.9366C14.8736 39.6107 16.1522 40.6505 17.6414 40.6505C18.5803 40.6505 19.5038 40.2462 20.3121 39.4816L25.0907 34.9595L32.0218 40.6954C32.0225 40.6961 32.0235 40.6964 32.0241 40.6971L32.0899 40.7516C32.096 40.7565 32.1024 40.7616 32.1084 40.7665C32.8788 41.3806 33.7197 41.7049 34.5412 41.7053H34.5415C36.1465 41.7053 37.4244 40.4842 37.7967 38.5949L43.8993 7.62472C44.1444 6.38162 43.9389 5.26928 43.3206 4.4923ZM12.7104 25.2258L27.6155 17.3998L18.3346 27.5354C18.1825 27.7013 18.0747 27.9045 18.0217 28.1257L16.2321 35.576L12.7104 25.2258ZM18.5655 37.5323C18.5038 37.5906 18.4417 37.6427 18.3796 37.6906L20.0399 30.7792L23.0601 33.2789L18.5655 37.5323ZM41.3725 7.09857L35.27 38.0691C35.2112 38.3655 35.0236 39.0552 34.5412 39.0552C34.3028 39.0552 34.0034 38.9217 33.6969 38.6791L25.843 32.1797C25.842 32.1786 25.8407 32.1776 25.8393 32.1769L21.1661 28.3092L34.5875 13.6518C35.0172 13.1826 35.0561 12.4639 34.6798 11.9485C34.3032 11.433 33.6207 11.2709 33.0624 11.5641L10.9879 23.1547L3.1572 20.852L40.391 6.24396C40.7055 6.12044 40.9251 6.09456 41.0536 6.09456C41.1325 6.09456 41.2728 6.10422 41.3249 6.17012C41.3933 6.25603 41.4806 6.54895 41.3725 7.09857Z" fill="#2352DE"/>
</g>

</symbol><symbol id="favicon" viewBox="0 0 32 32">
<rect width="32" height="32" fill="#2352DE"/>
<path fill-rule="evenodd" clip-rule="evenodd" d="M6.26096 4.99545C7.20409 4.03733 8.57409 3.99795 9.38284 4.90545C9.90409 5.49108 10.0072 6.87608 10.0928 14.4717L10.1935 23.3529L17.9435 23.5423C26.2122 23.7442 26.3922 23.7904 26.406 25.6936C26.4191 27.6098 25.9228 27.7098 16.3597 27.7098C8.17409 27.7098 7.41096 27.653 6.59971 26.9861L5.71909 26.2617L5.60909 16.0161C5.50284 6.1217 5.52471 5.74358 6.26096 4.99545Z" fill="white"/>
</symbol><symbol id="safari-pinned-tab" viewBox="0 0 574.000000 574.000000" preserveAspectRatio="xMidYMid meet">
<metadata>
Created by potrace 1.14, written by Peter Selinger 2001-2017
</metadata>
<g transform="translate(0.000000,574.000000) scale(0.100000,-0.100000)" fill="#000000" stroke="none">
<path d="M300 2870 l0 -2870 2570 0 2570 0 0 2870 0 2870 -2570 0 -2570 0 0
-2870z"/>
</g>
</symbol></svg>